<svg width="200" height="30" viewBox="0 0 200 30" fill="none" xmlns="http://www.w3.org/2000/svg">
<path d="M0.0795455 7.27273V0.90909H25.3636V7.27273H16.6136V30H8.82955V7.27273H0.0795455ZM28.3359 30V0.90909H36.2337V12.2727H46.6882V0.90909H54.5859V30H46.6882V18.6364H36.2337V30H28.3359ZM58.3359 30V0.90909H79.3018V7.27273H66.2337V12.2727H78.2223V18.6364H66.2337V23.6364H79.245V30H58.3359ZM91.1875 30V0.90909H111.642V7.27273H99.0852V12.2727H110.392V18.6364H99.0852V30H91.1875ZM122.445 0.90909V30H114.547V0.90909H122.445ZM126.188 30V0.90909H147.153V7.27273H134.085V12.2727H146.074V18.6364H134.085V23.6364H147.097V30H126.188ZM151.07 30V0.90909H158.968V23.6364H170.729V30H151.07ZM185.115 30H173.922V0.90909H185.001C187.994 0.90909 190.579 1.49148 192.757 2.65625C194.945 3.81155 196.63 5.47822 197.814 7.65625C199.007 9.82481 199.604 12.4242 199.604 15.4545C199.604 18.4848 199.012 21.089 197.828 23.267C196.644 25.4356 194.968 27.1023 192.8 28.267C190.631 29.4223 188.07 30 185.115 30ZM181.82 23.2955H184.831C186.27 23.2955 187.497 23.0634 188.51 22.5994C189.533 22.1354 190.309 21.3352 190.839 20.1989C191.379 19.0625 191.649 17.4811 191.649 15.4545C191.649 13.428 191.375 11.8466 190.825 10.7102C190.286 9.57386 189.49 8.77367 188.439 8.30966C187.397 7.84564 186.119 7.61364 184.604 7.61364H181.82V23.2955Z" fill="#3056D3"/>
</svg>
