<svg width="388" height="352" viewBox="0 0 388 352" fill="none" xmlns="http://www.w3.org/2000/svg">
<path d="M97.31 238.119C168.74 273.409 254.14 200.469 295.48 148.299C314.85 123.849 334.26 92.6886 327.67 60.1486C320.4 24.2286 286.67 -3.29145 249.89 0.318554C200.48 5.16855 208.25 42.2385 194.35 77.2385C178.54 117.099 150.19 93.6885 118.02 93.6585C38.66 93.5785 35.3 207.489 97.31 238.119Z" fill="#407BFF"/>
<path opacity="0.9" d="M97.31 238.119C168.74 273.409 254.14 200.469 295.48 148.299C314.85 123.849 334.26 92.6886 327.67 60.1486C320.4 24.2286 286.67 -3.29145 249.89 0.318554C200.48 5.16855 208.25 42.2385 194.35 77.2385C178.54 117.099 150.19 93.6885 118.02 93.6585C38.66 93.5785 35.3 207.489 97.31 238.119Z" fill="white"/>
<path d="M193.89 351.799C300.972 351.799 387.78 346.73 387.78 340.479C387.78 334.227 300.972 329.159 193.89 329.159C86.8075 329.159 0 334.227 0 340.479C0 346.73 86.8075 351.799 193.89 351.799Z" fill="#F5F5F5"/>
<path d="M210.89 53.1285V66.2385C210.887 67.1633 210.519 68.0495 209.865 68.7034C209.211 69.3573 208.325 69.7259 207.4 69.7285H175.23C174.305 69.7259 173.419 69.3573 172.765 68.7034C172.111 68.0495 171.743 67.1633 171.74 66.2385V18.7085C171.748 17.7872 172.119 16.9061 172.772 16.2565C173.425 15.6069 174.309 15.2411 175.23 15.2385H207.35C207.81 15.2332 208.267 15.3189 208.695 15.4905C209.122 15.6622 209.511 15.9165 209.84 16.2388C210.169 16.5612 210.431 16.9453 210.611 17.3691C210.791 17.7928 210.886 18.248 210.89 18.7085V39.4485" fill="white"/>
<path d="M207.35 70.2985H175.23C174.169 70.2985 173.152 69.8771 172.402 69.1269C171.651 68.3768 171.23 67.3594 171.23 66.2985V18.7085C171.23 17.6476 171.651 16.6302 172.402 15.8801C173.152 15.1299 174.169 14.7085 175.23 14.7085H207.35C208.411 14.7085 209.428 15.1299 210.178 15.8801C210.929 16.6302 211.35 17.6476 211.35 18.7085V39.4485H210.29V18.7085C210.29 17.9128 209.974 17.1498 209.411 16.5872C208.849 16.0246 208.086 15.7085 207.29 15.7085H175.23C174.434 15.7085 173.671 16.0246 173.109 16.5872C172.546 17.1498 172.23 17.9128 172.23 18.7085V66.2385C172.23 67.0341 172.546 67.7972 173.109 68.3598C173.671 68.9224 174.434 69.2385 175.23 69.2385H207.35C208.146 69.2385 208.909 68.9224 209.471 68.3598C210.034 67.7972 210.35 67.0341 210.35 66.2385V53.1285H211.41V66.2385C211.418 66.7739 211.319 67.3055 211.117 67.8017C210.916 68.298 210.617 68.7488 210.239 69.1274C209.86 69.506 209.409 69.8048 208.913 70.0059C208.417 70.2071 207.885 70.3066 207.35 70.2985Z" fill="#407BFF"/>
<path d="M188.89 63.2384C189.549 62.8256 190.234 62.4549 190.94 62.1284C191.266 61.9806 191.6 61.8504 191.94 61.7384C192.316 61.5851 192.715 61.4939 193.12 61.4684L192.71 61.2384C192.64 61.1284 192.6 61.4084 192.58 61.4784L192.44 61.8284C192.322 62.0762 192.238 62.3385 192.19 62.6084C192.164 62.7046 192.161 62.8056 192.183 62.9029C192.204 63.0002 192.248 63.091 192.312 63.1675C192.376 63.244 192.457 63.3041 192.549 63.3425C192.641 63.381 192.741 63.3967 192.84 63.3884C193.889 63.2006 194.891 62.81 195.79 62.2384H195.42C195.53 62.2384 195.66 62.3884 195.77 62.4284C195.934 62.4876 196.106 62.5213 196.28 62.5284C196.67 62.5284 197.06 62.4684 197.45 62.5284C198.06 62.5884 198.05 61.6384 197.45 61.5884C197.04 61.5884 196.61 61.6784 196.21 61.5884C195.81 61.4984 195.69 61.2184 195.27 61.4084C194.85 61.5984 194.51 61.8484 194.1 62.0184C193.911 62.0988 193.717 62.1689 193.52 62.2284L193.14 62.3384C193.03 62.3384 192.83 62.3384 192.99 62.4984L193.13 62.8284C193.13 62.1884 193.81 61.5884 193.63 60.9284C193.45 60.2684 192.63 60.5584 192.14 60.6784C190.812 61.0634 189.548 61.6431 188.39 62.3984C188.281 62.4608 188.202 62.5637 188.169 62.6847C188.136 62.8056 188.153 62.9347 188.215 63.0434C188.277 63.1522 188.38 63.2317 188.501 63.2645C188.622 63.2973 188.751 63.2808 188.86 63.2184L188.89 63.2384Z" fill="#E0E0E0"/>
<path d="M207.11 22.3285H175.46V23.3785H207.11V22.3285Z" fill="#E0E0E0"/>
<path d="M203.53 29.7784H175.46V30.8284H203.53V29.7784Z" fill="#E0E0E0"/>
<path d="M207.11 37.2385H175.46V38.2885H207.11V37.2385Z" fill="#E0E0E0"/>
<path d="M184.16 44.6985H175.46V45.7485H184.16V44.6985Z" fill="#E0E0E0"/>
<path d="M199.38 44.6985H187.81V45.7485H199.38V44.6985Z" fill="#E0E0E0"/>
<path d="M207.11 52.1484H175.46V53.1984H207.11V52.1484Z" fill="#E0E0E0"/>
<path d="M179.81 65.4685C178.845 65.4685 177.901 65.1823 177.099 64.6461C176.296 64.1099 175.671 63.3477 175.301 62.456C174.932 61.5643 174.835 60.5831 175.024 59.6365C175.212 58.6898 175.677 57.8203 176.359 57.1378C177.042 56.4553 177.911 55.9906 178.858 55.8023C179.805 55.614 180.786 55.7106 181.677 56.08C182.569 56.4493 183.331 57.0748 183.868 57.8773C184.404 58.6798 184.69 59.6233 184.69 60.5885C184.69 61.8828 184.176 63.124 183.261 64.0392C182.345 64.9544 181.104 65.4685 179.81 65.4685ZM179.81 56.7685C179.052 56.7685 178.311 56.9934 177.681 57.4147C177.051 57.836 176.56 58.4347 176.271 59.1351C175.981 59.8356 175.906 60.6062 176.054 61.3494C176.203 62.0926 176.569 62.775 177.105 63.3103C177.642 63.8455 178.325 64.2095 179.069 64.3561C179.813 64.5028 180.583 64.4255 181.283 64.1341C181.982 63.8427 182.58 63.3502 182.999 62.719C183.419 62.0879 183.642 61.3464 183.64 60.5885C183.637 59.5745 183.233 58.6028 182.515 57.8867C181.797 57.1706 180.824 56.7685 179.81 56.7685Z" fill="#407BFF"/>
<path d="M182.69 60.5885C182.692 61.1585 182.525 61.7163 182.209 62.1913C181.894 62.6662 181.445 63.0369 180.919 63.2564C180.393 63.4759 179.814 63.5344 179.254 63.4244C178.695 63.3144 178.181 63.0409 177.777 62.6385C177.373 62.2361 177.098 61.723 176.986 61.1641C176.874 60.6051 176.931 60.0255 177.148 59.4987C177.366 58.9719 177.735 58.5215 178.209 58.2046C178.683 57.8877 179.24 57.7185 179.81 57.7185C180.572 57.7185 181.303 58.0206 181.843 58.5585C182.383 59.0964 182.687 59.8264 182.69 60.5885Z" fill="#407BFF"/>
<path d="M198.97 59.7285C199.139 58.3589 199.625 57.0475 200.39 55.8985C201.11 54.8085 201.98 53.8985 202.78 52.8285C204.39 50.8285 206.06 48.8285 207.78 46.8285C211.16 42.8985 214.59 39.0085 218.33 35.3585C218.425 35.2769 218.546 35.231 218.671 35.2287C218.797 35.2264 218.919 35.2679 219.017 35.346C219.116 35.4241 219.183 35.5339 219.21 35.6566C219.236 35.7794 219.218 35.9073 219.16 36.0185C216.46 40.4885 213.45 44.7185 210.39 48.9085C208.85 50.9885 207.29 53.0585 205.69 55.0985C204.88 56.0985 204.14 57.1785 203.24 58.0985C202.298 59.1063 201.134 59.8801 199.84 60.3585C199.683 60.4105 199.513 60.4001 199.364 60.3293C199.215 60.2585 199.099 60.1328 199.04 59.9785C199.001 59.9006 198.977 59.8156 198.97 59.7285Z" fill="#407BFF"/>
<path d="M201.557 95.137L194.985 100.868L195.675 101.66L202.248 95.9284L201.557 95.137Z" fill="#407BFF"/>
<path d="M193.73 86.2638L190.951 98.6663L191.976 98.8958L194.755 86.4934L193.73 86.2638Z" fill="#407BFF"/>
<path d="M183.942 95.7674L183.176 96.4851L186.833 100.39L187.599 99.6725L183.942 95.7674Z" fill="#407BFF"/>
<path d="M260.95 332.529H252.44L251.4 312.829H259.9L260.95 332.529Z" fill="#7F3E3B"/>
<path d="M303.85 332.529H295.34L292.01 312.829H300.51L303.85 332.529Z" fill="#7F3E3B"/>
<path d="M294.79 331.539H304.34C304.507 331.536 304.669 331.593 304.797 331.699C304.925 331.806 305.011 331.954 305.04 332.119L306.36 339.679C306.387 339.868 306.374 340.06 306.32 340.244C306.266 340.427 306.173 340.596 306.048 340.741C305.923 340.885 305.768 341 305.594 341.079C305.42 341.158 305.231 341.199 305.04 341.199C301.71 341.139 300.1 340.939 295.89 340.939C293.31 340.939 286.34 341.209 282.77 341.209C279.2 341.209 278.9 337.679 280.37 337.359C287 335.929 291.19 333.949 293.37 332.069C293.764 331.727 294.268 331.539 294.79 331.539Z" fill="#263238"/>
<path d="M252.23 331.539H261.51C261.677 331.536 261.839 331.593 261.967 331.699C262.095 331.806 262.181 331.954 262.21 332.119L263.53 339.679C263.561 339.866 263.55 340.059 263.498 340.242C263.447 340.425 263.356 340.595 263.233 340.74C263.109 340.885 262.955 341.001 262.782 341.08C262.609 341.159 262.42 341.2 262.23 341.199C258.89 341.139 254.05 340.939 249.84 340.939C244.92 340.939 243.67 341.209 237.89 341.209C234.4 341.209 233.6 337.679 235.08 337.359C241.8 335.909 244.23 335.749 250.14 332.209C250.763 331.799 251.485 331.568 252.23 331.539Z" fill="#263238"/>
<path d="M251.96 67.6485L240.34 64.2385C240.34 64.2385 228.5 92.3685 224.49 94.2385C219.04 96.7385 204.49 104.409 198.33 108.029C197.91 109.419 197.9 113.229 198.57 114.329C208.66 113.529 229.36 106.679 233.34 102.859C242.42 94.1385 251.96 67.6485 251.96 67.6485Z" fill="#7F3E3B"/>
<path d="M255.48 62.3386C258.78 69.6986 236.12 101.979 236.12 101.979L225.12 90.5586C225.12 90.5586 234.85 66.1286 240.12 56.7586C245.5 47.1286 251.89 54.2386 255.48 62.3386Z" fill="#407BFF"/>
<path opacity="0.4" d="M255.48 62.3386C258.78 69.6986 236.12 101.979 236.12 101.979L225.12 90.5586C225.12 90.5586 234.85 66.1286 240.12 56.7586C245.5 47.1286 251.89 54.2386 255.48 62.3386Z" fill="white"/>
<path d="M224.32 89.5485C223.63 89.9585 222.15 92.6485 221.82 93.9885C221.49 95.3285 229.23 105.669 232.24 105.249C235.25 104.829 238.69 101.899 239.31 100.319C239.93 98.7385 225.77 88.6985 224.32 89.5485Z" fill="#407BFF"/>
<path d="M199.62 107.389L192.62 106.109L193.04 116.109C193.04 116.109 195.5 117.109 200.8 113.829L199.62 107.389Z" fill="#7F3E3B"/>
<path d="M184.16 109.439L185.44 115.589L192.99 116.149L192.57 106.119L184.16 109.439Z" fill="#7F3E3B"/>
<path opacity="0.2" d="M251.4 312.839L251.94 322.989H260.44L259.91 312.839H251.4Z" fill="black"/>
<path opacity="0.2" d="M300.52 312.839H292.01L293.73 322.989H302.24L300.52 312.839Z" fill="black"/>
<path d="M244.67 52.2986C244.67 52.2986 233.32 81.5186 240.58 129.349H286.07C286.71 122.349 284.07 84.7586 292.34 51.8586C287.341 50.8837 282.284 50.239 277.2 49.9286C270.759 49.5583 264.301 49.5583 257.86 49.9286C253.409 50.3813 249 51.1736 244.67 52.2986Z" fill="#407BFF"/>
<path opacity="0.2" d="M244.67 52.2986C244.67 52.2986 233.32 81.5186 240.58 129.349H286.07C286.71 122.349 284.07 84.7586 292.34 51.8586C287.341 50.8837 282.284 50.239 277.2 49.9286C270.759 49.5583 264.301 49.5583 257.86 49.9286C253.409 50.3813 249 51.1736 244.67 52.2986Z" fill="black"/>
<path opacity="0.2" d="M282.07 59.9786C281.07 65.3986 282.14 78.3485 286.59 93.3185C287.132 80.4664 288.805 67.6869 291.59 55.1285V55.0685C288.57 54.7585 283.04 54.8986 282.07 59.9786Z" fill="black"/>
<path d="M275.54 31.8486C274.02 38.0686 273.05 45.7786 277.2 49.9286C277.2 49.9286 274.4 56.2486 262.84 56.2486C252.27 56.2486 257.84 49.9286 257.84 49.9286C264.84 48.2786 264.91 39.6986 263.93 34.8586L275.54 31.8486Z" fill="#7F3E3B"/>
<path d="M262.89 56.2386C269.7 58.3686 271.05 60.5486 271.05 60.5486C271.05 60.5486 279.54 57.0986 279.22 49.6186C278.189 48.8562 277.075 48.2122 275.9 47.6986C275.9 47.6986 275.18 53.2386 262.89 56.2386Z" fill="#407BFF"/>
<path d="M262.89 56.2385C259.07 56.5985 255.89 59.8685 255.89 59.8685C255.89 59.8685 253.46 57.3185 255.79 49.9185C255.79 49.9185 258.06 49.1485 259.94 48.7485C259.89 48.7585 258.36 54.6385 262.89 56.2385Z" fill="#407BFF"/>
<path opacity="0.2" d="M263.95 34.8686C264.53 37.6986 264.75 41.8686 263.41 45.0786C264.503 44.8995 265.564 44.5627 266.56 44.0786C270.56 42.2386 272.62 39.3286 274.84 35.0786C275.04 33.9686 275.28 32.8886 275.54 31.8486L263.95 34.8686Z" fill="black"/>
<path d="M262.6 11.9686C259.88 12.8586 253.8 18.0786 259.6 20.7086C265.4 23.3386 267.34 10.4286 262.6 11.9686Z" fill="#263238"/>
<path d="M280.95 24.2386C278.3 32.3986 277.16 37.2386 271.95 40.6386C264.12 45.6386 255.07 39.6386 255.28 31.0186C255.46 23.2086 259.76 11.1786 268.57 9.62861C277.38 8.07861 283.6 16.1086 280.95 24.2386Z" fill="#7F3E3B"/>
<path d="M268.17 15.3086C263.67 16.0686 259.92 15.8286 258.56 12.0886C257.2 8.34857 263.39 4.42857 267.66 6.18857C270.81 2.90857 279.41 5.42857 280.52 8.57857C285.52 8.25857 290.25 14.0186 286.86 16.9686C287.627 17.4449 288.275 18.0898 288.755 18.8541C289.235 19.6184 289.535 20.4821 289.631 21.3796C289.728 22.2771 289.618 23.1847 289.311 24.0336C289.004 24.8825 288.508 25.6502 287.86 26.2786C289.32 30.6186 284.06 34.9486 279.91 33.1886C275.82 31.9686 273.59 32.9686 273.02 30.3286C272.45 27.6886 273.89 25.1386 277.37 24.6286C275.61 22.5286 275.18 19.2086 276.37 17.7786C272.16 19.6886 268.71 17.2886 268.17 15.3086Z" fill="#263238"/>
<path d="M262.77 32.8986C263.566 32.9654 264.366 32.8743 265.127 32.6306C265.887 32.387 266.592 31.9954 267.2 31.4786C267.237 31.4396 267.258 31.3876 267.258 31.3336C267.258 31.2796 267.237 31.2277 267.2 31.1886C267.182 31.1692 267.161 31.1537 267.136 31.1431C267.112 31.1325 267.086 31.1271 267.06 31.1271C267.034 31.1271 267.008 31.1325 266.984 31.1431C266.959 31.1537 266.938 31.1692 266.92 31.1886C266.253 31.7421 265.469 32.1375 264.627 32.3453C263.786 32.5531 262.908 32.5679 262.06 32.3886C262.007 32.3796 261.953 32.3911 261.908 32.4209C261.864 32.4506 261.832 32.4963 261.82 32.5486C261.813 32.5737 261.811 32.6 261.814 32.6259C261.818 32.6518 261.827 32.6765 261.842 32.6984C261.856 32.7203 261.875 32.7388 261.897 32.7526C261.919 32.7665 261.944 32.7754 261.97 32.7786C262.234 32.8321 262.501 32.8721 262.77 32.8986Z" fill="#263238"/>
<path d="M281.42 35.5086C279.718 36.8376 277.568 37.4575 275.42 37.2386C272.63 36.9286 272.42 34.1786 274.17 32.0986C275.75 30.2186 279.11 28.0986 281.44 29.4786C283.77 30.8586 283.51 33.8486 281.42 35.5086Z" fill="#7F3E3B"/>
<path d="M270.48 129.349C270.48 129.349 269.32 140.049 267.84 154.539C266.14 170.969 264.03 192.299 262.69 208.539C262.69 208.619 262.69 208.689 262.69 208.759C262.43 211.849 262.2 214.759 262.01 217.379C260.11 243.889 263.51 321.009 263.51 321.009H249.09C249.09 321.009 235.81 242.309 236.14 215.329C236.45 189.399 240.57 129.329 240.57 129.329L270.48 129.349Z" fill="#407BFF"/>
<path d="M264.69 315.379C264.76 315.379 264.44 321.319 264.44 321.319H247.83L247.41 314.799L264.69 315.379Z" fill="#263238"/>
<path opacity="0.2" d="M267.89 154.539C266.19 170.969 264.08 192.299 262.74 208.539C262.74 208.619 262.74 208.689 262.74 208.759C259.57 193.349 258.58 174.189 259.81 142.639L267.89 154.539Z" fill="black"/>
<path d="M256.71 129.349C256.71 129.349 263.35 190.809 267.48 215.159C272.01 241.829 289.89 321.019 289.89 321.019H305.47C305.47 321.019 294.97 244.019 292.91 217.579C290.69 188.919 286.1 129.349 286.1 129.349H256.71Z" fill="#407BFF"/>
<path d="M305.66 315.739C305.73 315.739 306.2 321.319 306.2 321.319H289.08L287.83 315.089L305.66 315.739Z" fill="#263238"/>
<path d="M266.82 23.8786C266.64 24.5486 266.15 25.0186 265.72 24.8786C265.29 24.7386 265.08 24.1586 265.25 23.4886C265.42 22.8186 265.92 22.3486 266.35 22.4886C266.78 22.6286 266.99 23.2386 266.82 23.8786Z" fill="#263238"/>
<path d="M259.34 22.2386C259.16 22.9086 258.67 23.3786 258.24 23.2386C257.81 23.0986 257.6 22.5286 257.77 21.8486C257.94 21.1686 258.44 20.7086 258.87 20.8486C259.3 20.9886 259.51 21.5686 259.34 22.2386Z" fill="#263238"/>
<path d="M262.83 23.0986C261.506 24.983 259.943 26.6873 258.18 28.1686C259.06 29.5286 261.18 29.4586 261.18 29.4586L262.83 23.0986Z" fill="#630F0F"/>
<path d="M270.89 21.9185C270.831 21.9029 270.776 21.8741 270.729 21.8342C270.682 21.7944 270.645 21.7446 270.62 21.6885C270.444 21.2261 270.157 20.8143 269.784 20.4898C269.41 20.1652 268.962 19.9381 268.48 19.8285C268.428 19.8215 268.378 19.8037 268.333 19.7762C268.288 19.7487 268.249 19.7122 268.219 19.6689C268.189 19.6257 268.168 19.5766 268.158 19.5249C268.148 19.4732 268.148 19.4199 268.16 19.3685C268.18 19.2623 268.239 19.1677 268.327 19.1044C268.414 19.041 268.523 19.0139 268.63 19.0285C269.245 19.1544 269.818 19.4328 270.297 19.8383C270.775 20.2437 271.145 20.763 271.37 21.3485C271.408 21.4497 271.406 21.5615 271.366 21.6615C271.325 21.7616 271.248 21.8426 271.15 21.8885C271.069 21.9274 270.978 21.938 270.89 21.9185Z" fill="#263238"/>
<path d="M257.89 18.8186C257.836 18.7961 257.785 18.7657 257.74 18.7286C257.702 18.6914 257.672 18.647 257.652 18.5981C257.631 18.5491 257.621 18.4966 257.621 18.4436C257.621 18.3905 257.631 18.338 257.652 18.2891C257.672 18.2402 257.702 18.1958 257.74 18.1586C258.163 17.6682 258.696 17.2855 259.296 17.0421C259.896 16.7987 260.545 16.7015 261.19 16.7586C261.242 16.7656 261.292 16.7834 261.337 16.8109C261.382 16.8384 261.421 16.8749 261.451 16.9182C261.481 16.9614 261.502 17.0105 261.512 17.0622C261.522 17.1139 261.522 17.1672 261.51 17.2186C261.488 17.3237 261.428 17.4169 261.341 17.4798C261.254 17.5427 261.147 17.5708 261.04 17.5586C260.527 17.5207 260.013 17.6041 259.539 17.8022C259.064 18.0003 258.643 18.3074 258.31 18.6986C258.256 18.7534 258.19 18.7933 258.116 18.8144C258.042 18.8354 257.964 18.8369 257.89 18.8186Z" fill="#263238"/>
<path d="M297.38 63.4685L286.64 69.9685C286.64 69.9685 298.64 95.9685 298.57 100.339C298.37 108.499 301.88 126.189 300.93 135.509C302.25 135.979 305.93 136.089 307.09 135.439C309.22 127.009 312.17 104.859 311.32 99.3085C309.46 87.2385 297.38 63.4685 297.38 63.4685Z" fill="#7F3E3B"/>
<path d="M292.34 51.8585C300.34 53.0285 311.74 93.6285 311.74 93.6285L296.94 99.2385C296.94 99.2385 284.05 77.2385 280.89 67.3485C277.49 57.0285 283.77 50.5985 292.34 51.8585Z" fill="#407BFF"/>
<path opacity="0.4" d="M292.34 51.8585C300.34 53.0285 311.74 93.6285 311.74 93.6285L296.94 99.2385C296.94 99.2385 284.05 77.2385 280.89 67.3485C277.49 57.0285 283.77 50.5985 292.34 51.8585Z" fill="white"/>
<path d="M291.89 333.029C291.318 333.078 290.747 332.922 290.28 332.589C290.131 332.459 290.019 332.294 289.954 332.108C289.889 331.922 289.874 331.722 289.91 331.529C289.916 331.409 289.954 331.294 290.019 331.194C290.084 331.094 290.174 331.013 290.28 330.959C291.28 330.479 293.91 332.159 294.21 332.359C294.243 332.379 294.269 332.409 294.283 332.445C294.298 332.481 294.3 332.521 294.29 332.559C294.28 332.597 294.26 332.633 294.232 332.661C294.204 332.689 294.169 332.709 294.13 332.719C293.398 332.908 292.646 333.012 291.89 333.029ZM290.72 331.239C290.631 331.233 290.541 331.25 290.46 331.289C290.418 331.31 290.383 331.343 290.358 331.384C290.333 331.425 290.32 331.471 290.32 331.519C290.295 331.652 290.303 331.79 290.345 331.919C290.387 332.049 290.461 332.165 290.56 332.259C291 332.649 292.11 332.699 293.56 332.409C292.702 331.831 291.736 331.433 290.72 331.239Z" fill="#407BFF"/>
<path d="M294.09 332.728C294.061 332.737 294.029 332.737 294 332.728C293.14 332.258 291.53 330.389 291.76 329.439C291.797 329.291 291.882 329.16 292.002 329.066C292.121 328.972 292.268 328.92 292.42 328.918C292.571 328.898 292.725 328.91 292.872 328.953C293.018 328.996 293.154 329.07 293.27 329.168C294.22 329.978 294.27 332.438 294.27 332.538C294.27 332.576 294.261 332.613 294.244 332.646C294.226 332.679 294.201 332.707 294.17 332.728C294.143 332.732 294.117 332.732 294.09 332.728ZM292.54 329.238H292.45C292.19 329.238 292.16 329.389 292.15 329.439C292.01 329.999 293.03 331.438 293.87 332.068C293.867 331.112 293.562 330.182 293 329.409C292.873 329.297 292.709 329.237 292.54 329.238Z" fill="#407BFF"/>
<path d="M248.62 333.029C247.897 333.097 247.173 332.913 246.57 332.509C246.438 332.381 246.339 332.224 246.281 332.049C246.224 331.875 246.21 331.69 246.24 331.509C246.252 331.396 246.291 331.288 246.354 331.194C246.416 331.1 246.501 331.023 246.6 330.969C247.66 330.389 251 332.129 251.38 332.329C251.416 332.349 251.444 332.381 251.46 332.419C251.476 332.456 251.48 332.499 251.47 332.539C251.462 332.581 251.442 332.62 251.412 332.65C251.381 332.681 251.342 332.701 251.3 332.709C250.418 332.896 249.521 333.003 248.62 333.029ZM247.16 331.239C247.03 331.232 246.899 331.256 246.78 331.309C246.741 331.332 246.708 331.364 246.684 331.402C246.66 331.44 246.645 331.484 246.64 331.529C246.62 331.647 246.629 331.768 246.668 331.881C246.706 331.995 246.772 332.097 246.86 332.179C247.36 332.639 248.75 332.719 250.65 332.409C249.563 331.819 248.382 331.423 247.16 331.239Z" fill="#407BFF"/>
<path d="M251.27 332.729H251.18C250.18 332.269 248.18 330.429 248.43 329.469C248.43 329.239 248.66 328.959 249.21 328.909C249.407 328.883 249.607 328.901 249.797 328.959C249.987 329.018 250.162 329.117 250.31 329.249C251.31 330.139 251.47 332.429 251.48 332.529C251.479 332.564 251.47 332.6 251.452 332.631C251.435 332.662 251.41 332.689 251.38 332.709C251.347 332.729 251.308 332.736 251.27 332.729ZM249.35 329.239H249.23C248.87 329.239 248.84 329.419 248.83 329.459C248.71 330.039 250.02 331.459 251.04 332.109C250.989 331.152 250.639 330.236 250.04 329.489C249.85 329.321 249.603 329.231 249.35 329.239Z" fill="#407BFF"/>
<path d="M326.539 143.727L275.422 150.393C273.182 150.685 271.603 152.738 271.895 154.978L276.248 188.355C276.54 190.595 278.593 192.174 280.833 191.882L331.95 185.216C334.19 184.924 335.769 182.871 335.476 180.631L331.124 147.254C330.832 145.014 328.779 143.435 326.539 143.727Z" fill="#263238"/>
<path opacity="0.3" d="M326.539 143.727L275.422 150.393C273.182 150.685 271.603 152.738 271.895 154.978L276.248 188.355C276.54 190.595 278.593 192.174 280.833 191.882L331.95 185.216C334.19 184.924 335.769 182.871 335.476 180.631L331.124 147.254C330.832 145.014 328.779 143.435 326.539 143.727Z" fill="black"/>
<path d="M298.58 154.759C297.725 154.758 296.895 154.473 296.22 153.949C295.403 153.318 294.868 152.391 294.73 151.369L293.83 144.429C293.764 143.923 293.798 143.409 293.931 142.917C294.064 142.425 294.292 141.963 294.603 141.559C294.914 141.155 295.302 140.816 295.744 140.562C296.186 140.308 296.674 140.144 297.18 140.079L308.73 138.569C309.752 138.435 310.786 138.713 311.603 139.341C312.421 139.969 312.956 140.896 313.09 141.919L314 148.859C314.128 149.88 313.848 150.911 313.221 151.727C312.594 152.543 311.67 153.079 310.65 153.219L299.09 154.719C298.921 154.742 298.751 154.755 298.58 154.759ZM309.24 140.759H309.03L297.47 142.269C297.258 142.296 297.054 142.364 296.869 142.471C296.684 142.577 296.522 142.719 296.392 142.888C296.262 143.057 296.166 143.25 296.111 143.456C296.056 143.662 296.042 143.877 296.07 144.089L296.97 151.029C297.029 151.458 297.256 151.846 297.6 152.109C297.769 152.239 297.962 152.334 298.168 152.389C298.374 152.444 298.589 152.457 298.8 152.429L310.35 150.929C310.778 150.869 311.165 150.644 311.429 150.302C311.692 149.959 311.811 149.527 311.76 149.099L310.89 142.239C310.863 142.027 310.794 141.822 310.688 141.637C310.581 141.451 310.439 141.289 310.27 141.159C309.979 140.922 309.615 140.791 309.24 140.789V140.759Z" fill="#263238"/>
<path d="M331.407 143.094L280.29 149.76C278.05 150.052 276.471 152.105 276.763 154.344L281.116 187.722C281.408 189.962 283.46 191.541 285.7 191.249L336.817 184.582C339.057 184.29 340.636 182.238 340.344 179.998L335.991 146.621C335.699 144.381 333.647 142.802 331.407 143.094Z" fill="#263238"/>
<path d="M301.41 134.109L298.15 140.459L307.71 140.899C308.4 139.512 308.651 137.948 308.429 136.415C308.208 134.882 307.524 133.453 306.47 132.319L301.41 134.109Z" fill="#7F3E3B"/>
<path d="M301.8 145.379L307.5 144.599L307.71 140.899L298.15 140.459L298.3 142.529C298.329 142.951 298.444 143.363 298.639 143.738C298.834 144.114 299.103 144.446 299.432 144.713C299.76 144.98 300.139 145.177 300.547 145.292C300.954 145.406 301.381 145.436 301.8 145.379Z" fill="#7F3E3B"/>
<path d="M294.71 96.9286C294.56 97.7086 295.62 100.599 296.4 101.719C297.18 102.839 310.08 103.829 311.74 101.289C313.4 98.7486 313.47 94.2286 312.68 92.7186C311.89 91.2086 295.02 95.2386 294.71 96.9286Z" fill="#407BFF"/>
<path d="M106.27 65.7185C104.66 67.8285 102.91 70.1385 101.27 72.4085C99.63 74.6785 98.05 76.9885 96.54 79.3285C93.5116 83.8188 90.8975 88.575 88.73 93.5385C88.48 94.1285 88.25 94.7185 88.05 95.3085C87.9433 95.6019 87.8433 95.8918 87.75 96.1785L87.61 96.6185L87.55 96.8285V96.8885C87.3669 97.6547 87.3296 98.4485 87.44 99.2285C87.7851 101.744 88.3779 104.22 89.21 106.619C90.92 111.789 93.21 117.119 95.46 122.289L90.35 125.529C86.5163 120.798 83.1975 115.672 80.45 110.239C78.9365 107.305 77.7847 104.199 77.02 100.989C76.5234 98.9116 76.4419 96.757 76.78 94.6485L76.86 94.1685L76.94 93.8485L77.09 93.2285C77.18 92.8185 77.28 92.4085 77.4 92.0085C77.62 91.1985 77.86 90.4185 78.12 89.6385C80.2115 83.7548 82.9411 78.1179 86.26 72.8285C87.86 70.2385 89.5 67.6985 91.26 65.2485C93.02 62.7985 94.76 60.4185 96.79 57.9785L106.27 65.7185Z" fill="#263238"/>
<path d="M94.11 120.438L99.37 123.228L93.37 130.318C93.37 130.318 89.59 127.758 89.37 123.858L94.11 120.438Z" fill="#FFC3BD"/>
<path d="M106.45 127.599L99.97 132.749L93.32 130.319L99.37 123.229L106.45 127.599Z" fill="#FFC3BD"/>
<path d="M185.07 105.239L191.29 108.449L190.74 110.689L185.74 115.689C185.74 115.689 182.14 112.889 182.22 108.989L185.07 105.239Z" fill="#FFC3BD"/>
<path d="M185.97 106.118L191.67 105.048L195.33 106.608L192.89 107.018L191.29 108.468L185.97 106.118Z" fill="#FFC3BD"/>
<path d="M197.52 116.429L191.34 117.759C190.692 117.896 190.017 117.815 189.42 117.529L185.71 115.729L190.71 110.729L194.02 109.729L198.16 114.479C198.289 114.637 198.376 114.825 198.413 115.026C198.45 115.227 198.436 115.434 198.372 115.628C198.309 115.822 198.197 115.997 198.048 116.137C197.899 116.277 197.718 116.377 197.52 116.429Z" fill="#FFC3BD"/>
<path d="M129.06 25.1784C129.2 25.8484 129.66 26.3184 130.06 26.1784C130.46 26.0384 130.74 25.4684 130.61 24.7984C130.48 24.1284 130 23.6584 129.61 23.7984C129.22 23.9384 128.89 24.5084 129.06 25.1784Z" fill="#263238"/>
<path d="M129.6 26.3285C130.817 28.2172 132.287 29.9299 133.97 31.4185C132.97 32.7685 130.89 32.6685 130.89 32.6685L129.6 26.3285Z" fill="#FF5652"/>
<path d="M125.89 21.9484C125.79 21.9443 125.694 21.9054 125.62 21.8384C125.546 21.762 125.505 21.6598 125.505 21.5534C125.505 21.4471 125.546 21.3449 125.62 21.2684C126.043 20.7899 126.574 20.4195 127.169 20.1881C127.763 19.9567 128.405 19.8711 129.04 19.9384C129.133 19.9686 129.212 20.0312 129.264 20.1148C129.315 20.1984 129.334 20.2975 129.318 20.3942C129.303 20.4909 129.253 20.5788 129.178 20.6419C129.103 20.705 129.008 20.7393 128.91 20.7384C128.407 20.6916 127.899 20.7651 127.43 20.9529C126.96 21.1407 126.542 21.4373 126.21 21.8184C126.17 21.8632 126.121 21.8982 126.065 21.9208C126.01 21.9433 125.95 21.9528 125.89 21.9484Z" fill="#263238"/>
<path d="M110.89 37.0284C112.05 42.9284 112.74 51.0984 108.62 55.0284C108.62 55.0284 110.23 61.0284 121.19 61.0284C133.25 61.0284 126.99 55.7684 126.99 55.7684C121.99 54.2184 121.99 48.5084 123.17 43.9284L110.89 37.0284Z" fill="#FFC3BD"/>
<path d="M106.89 59.0684C105.89 57.4884 106.22 52.6984 107.42 51.9184C109.34 50.6584 117.26 50.7984 127.77 53.8684C126.35 58.4484 128.66 61.0284 128.66 61.0284L106.89 59.0684Z" fill="#407BFF"/>
<path opacity="0.2" d="M98.09 67.5585C94.34 71.2585 93.25 78.8385 93.66 84.0085C94.58 82.4385 95.56 80.8685 96.57 79.3385C98.08 76.9885 99.69 74.6985 101.31 72.3985C101.76 71.7685 102.22 71.1285 102.69 70.4885C102.78 70.0785 102.86 69.6685 102.94 69.2685L98.09 67.5585Z" fill="black"/>
<path d="M71.53 331.239C72.1851 331.467 72.9039 331.428 73.53 331.129C73.6508 331.019 73.7342 330.874 73.7683 330.714C73.8023 330.554 73.7855 330.388 73.72 330.239C73.683 330.116 73.6201 330.002 73.5356 329.905C73.4511 329.809 73.3469 329.732 73.23 329.679C72.14 329.159 69.63 330.179 69.53 330.219C69.4956 330.232 69.466 330.255 69.4447 330.286C69.4233 330.316 69.4113 330.352 69.41 330.388C69.4085 330.426 69.4182 330.463 69.4377 330.495C69.4573 330.527 69.4859 330.553 69.52 330.568C70.1644 330.862 70.8382 331.087 71.53 331.239ZM72.85 329.948L73.07 330.019C73.1395 330.049 73.2015 330.094 73.2516 330.151C73.3017 330.208 73.3387 330.276 73.36 330.348C73.46 330.688 73.36 330.799 73.29 330.839C72.86 331.209 71.29 330.839 70.12 330.409C70.9938 330.036 71.9414 329.868 72.89 329.918L72.85 329.948Z" fill="#407BFF"/>
<path d="M69.57 330.558H69.66C70.58 330.298 72.53 328.908 72.55 327.998C72.5532 327.854 72.506 327.713 72.4166 327.6C72.3271 327.487 72.201 327.409 72.06 327.378C71.9219 327.327 71.7741 327.306 71.6272 327.318C71.4802 327.33 71.3378 327.375 71.21 327.448C70.14 327.998 69.46 330.228 69.43 330.318C69.4151 330.348 69.4073 330.38 69.4073 330.413C69.4073 330.446 69.4151 330.479 69.43 330.508C69.469 330.542 69.5188 330.559 69.57 330.558ZM71.85 327.698H71.94C72.17 327.778 72.17 327.898 72.17 327.948C72.17 328.488 70.87 329.568 69.92 330.008C70.175 329.126 70.6867 328.339 71.39 327.748C71.4657 327.707 71.549 327.681 71.6349 327.672C71.7208 327.664 71.8076 327.673 71.89 327.698H71.85Z" fill="#407BFF"/>
<path d="M131.08 332.558C132.08 332.558 133.08 332.418 133.45 331.948C133.536 331.827 133.582 331.682 133.582 331.533C133.582 331.385 133.536 331.24 133.45 331.118C133.314 330.894 133.095 330.733 132.84 330.668C131.5 330.308 128.68 331.908 128.56 331.978C128.525 331.997 128.497 332.027 128.481 332.063C128.465 332.099 128.461 332.14 128.47 332.178C128.475 332.217 128.493 332.254 128.52 332.282C128.546 332.311 128.582 332.331 128.62 332.338C129.432 332.482 130.255 332.555 131.08 332.558ZM132.36 330.998C132.483 330.983 132.607 330.983 132.73 330.998C132.807 331.015 132.88 331.047 132.944 331.094C133.008 331.14 133.061 331.2 133.1 331.268C133.24 331.508 133.19 331.618 133.1 331.688C132.73 332.208 130.69 332.218 129.19 332.008C130.172 331.471 131.248 331.128 132.36 330.998Z" fill="#407BFF"/>
<path d="M128.64 332.338H128.72C129.72 331.908 131.62 330.158 131.48 329.248C131.48 329.028 131.29 328.768 130.77 328.708C130.58 328.691 130.389 328.711 130.207 328.768C130.025 328.825 129.856 328.916 129.71 329.038C128.71 329.888 128.46 332.038 128.45 332.148C128.449 332.181 128.456 332.213 128.47 332.243C128.484 332.272 128.504 332.298 128.53 332.318C128.564 332.336 128.602 332.343 128.64 332.338ZM130.64 329.068H130.76C131.1 329.068 131.12 329.238 131.13 329.278C131.22 329.828 129.91 331.198 128.92 331.788C129.009 330.872 129.379 330.006 129.98 329.308C130.156 329.158 130.379 329.073 130.61 329.068H130.64Z" fill="#407BFF"/>
<path d="M119.78 332.148H127.84L128.64 313.469H120.58L119.78 332.148Z" fill="#FFC3BD"/>
<path d="M60.72 328.698L68.5 330.348L75.56 312.478L67.78 310.828L60.72 328.698Z" fill="#FFC3BD"/>
<path d="M69.22 329.329L60.36 327.409C60.2051 327.376 60.0435 327.396 59.9019 327.467C59.7602 327.538 59.6467 327.655 59.58 327.799L56.5 334.469C56.4257 334.632 56.3893 334.81 56.3934 334.989C56.3975 335.168 56.4421 335.344 56.5239 335.504C56.6056 335.664 56.7224 335.803 56.8654 335.911C57.0085 336.019 57.1741 336.093 57.35 336.129C60.46 336.739 62 336.888 65.89 337.728C68.29 338.248 73.7 339.569 77.01 340.279C80.32 340.989 81.45 337.818 80.16 337.228C74.38 334.588 71.96 332.229 70.39 330.089C70.1077 329.699 69.6908 329.428 69.22 329.329Z" fill="#263238"/>
<path d="M127.79 331.239H118.98C118.82 331.241 118.666 331.296 118.541 331.395C118.416 331.495 118.328 331.633 118.29 331.789L116.7 338.959C116.661 339.132 116.661 339.312 116.702 339.485C116.742 339.658 116.821 339.82 116.932 339.959C117.044 340.097 117.185 340.209 117.346 340.285C117.506 340.361 117.682 340.4 117.86 340.399C121.04 340.339 125.63 340.159 129.62 340.159C134.29 340.159 135.95 340.409 141.42 340.409C144.73 340.409 145.65 337.069 144.27 336.759C137.96 335.379 135.18 335.229 129.73 331.869C129.153 331.485 128.482 331.267 127.79 331.239Z" fill="#263238"/>
<path opacity="0.2" d="M128.64 313.479L128.23 323.099H120.16L120.57 313.479H128.64Z" fill="black"/>
<path opacity="0.2" d="M67.78 310.828L75.56 312.478L71.92 321.689L64.14 320.048L67.78 310.828Z" fill="black"/>
<path d="M125.55 126.989C125.55 126.989 116.39 188.629 111.37 211.719C105.87 237.009 76.37 320.719 76.37 320.719L61.89 317.539C61.89 317.539 82.53 249.359 87.14 214.009C90.69 186.859 97.68 127.009 97.68 127.009L125.55 126.989Z" fill="#263238"/>
<path opacity="0.1" d="M125.55 126.989C125.55 126.989 116.39 188.629 111.37 211.719C105.87 237.009 76.37 320.719 76.37 320.719L61.89 317.539C61.89 317.539 82.53 249.359 87.14 214.009C90.69 186.859 97.68 127.009 97.68 127.009L125.55 126.989Z" fill="white"/>
<path d="M79.82 315.848C79.88 315.848 77.13 321.068 77.13 321.068L60.89 317.548L62.26 312.668L79.82 315.848Z" fill="#263238"/>
<path opacity="0.3" d="M119.76 148.948C109.18 151.028 110.3 190.498 111.57 210.798C114.57 196.448 119.09 168.798 122.15 149.238C121.408 148.877 120.567 148.775 119.76 148.948Z" fill="black"/>
<path d="M140.89 126.989C140.89 126.989 142 187.289 141.12 211.889C140.21 237.469 131.28 321.239 131.28 321.239H117.57C117.57 321.239 117.07 238.969 116.46 213.839C115.8 186.449 112.46 126.989 112.46 126.989H140.89Z" fill="#263238"/>
<path opacity="0.1" d="M140.89 126.989C140.89 126.989 142 187.289 141.12 211.889C140.21 237.469 131.28 321.239 131.28 321.239H117.57C117.57 321.239 117.07 238.969 116.46 213.839C115.8 186.449 112.46 126.989 112.46 126.989H140.89Z" fill="white"/>
<path d="M133.89 315.798C133.95 315.798 133.11 321.468 133.11 321.468H116.47L116.02 316.408L133.89 315.798Z" fill="#263238"/>
<path d="M141.95 64.9485C143.6 73.6685 146.66 98.0285 141.88 133.468L95.2 132.748C94.93 126.558 99.85 92.9585 95.3 63.1285C95.1732 62.2823 95.2162 61.4194 95.4265 60.5901C95.6369 59.7608 96.0104 58.9817 96.5253 58.2984C97.0401 57.6151 97.6859 57.0411 98.425 56.6102C99.1642 56.1792 99.9817 55.8999 100.83 55.7885C103.19 55.4685 105.93 55.1685 108.63 55.0385C114.735 54.6882 120.855 54.6882 126.96 55.0385C128.96 55.2285 130.96 55.5185 132.74 55.8285C135.019 56.2361 137.119 57.3266 138.764 58.9553C140.409 60.584 141.52 62.674 141.95 64.9485Z" fill="#263238"/>
<path opacity="0.2" d="M143.23 73.6084L135.37 75.5584C134.77 82.8984 139.61 91.2084 144.45 97.5584C144.499 89.5584 144.092 81.562 143.23 73.6084Z" fill="black"/>
<path d="M140 61.0284C141.33 63.4184 142.77 66.0285 144.25 68.4585C145.73 70.8885 147.25 73.3784 148.78 75.7784C151.728 80.4948 155.074 84.951 158.78 89.0984C159.24 89.5684 159.69 90.0484 160.15 90.4884L160.49 90.8185L160.76 91.0585C160.91 91.2185 161.17 91.3985 161.36 91.5685C162.28 92.2885 163.36 93.0484 164.55 93.7784C166.9 95.2284 169.42 96.6484 171.98 98.0184C177.1 100.768 182.4 103.468 187.63 106.198L185.56 111.888C179.642 110.471 173.814 108.698 168.11 106.578C165.25 105.508 162.38 104.348 159.51 102.938C157.984 102.211 156.504 101.39 155.08 100.478C154.69 100.198 154.32 99.9785 153.9 99.6485L153.3 99.1884L152.81 98.7784C152.14 98.2384 151.53 97.6785 150.91 97.1185C148.548 94.9153 146.342 92.5495 144.31 90.0385C142.31 87.6085 140.44 85.0384 138.67 82.5484C136.9 80.0584 135.22 77.4184 133.67 74.7684C132.12 72.1184 130.58 69.5184 129.14 66.6384L140 61.0284Z" fill="#263238"/>
<path d="M106.38 28.2984C108.56 36.4384 109.38 41.2984 114.45 44.6984C122.01 49.7984 131.45 43.9485 131.71 35.3185C131.97 27.5585 128.36 15.5484 119.63 13.9084C117.705 13.5349 115.717 13.6601 113.854 14.2722C111.992 14.8842 110.316 15.9627 108.988 17.4051C107.66 18.8474 106.723 20.6056 106.267 22.5124C105.81 24.4191 105.849 26.411 106.38 28.2984Z" fill="#FFC3BD"/>
<path d="M123.29 28.3985C125.23 25.5485 125.97 21.1685 124.61 19.0585C125.88 19.5885 135.04 20.2185 131.45 13.6985C127.86 7.17846 120.66 5.37847 114.39 7.17847L117.44 8.05847C117.44 8.05847 108.87 7.43846 104.7 10.9085C105.97 10.9785 107.07 10.9085 107.07 10.9085C107.07 10.9085 97.89 15.2385 101.89 18.5285C95.44 23.4385 99.81 30.2385 110.43 40.3785C112.28 42.0485 117.52 41.4385 118.68 40.4385C117.94 36.0185 122.2 30.0185 123.29 28.3985Z" fill="#263238"/>
<path d="M124.37 22.8485C126.27 24.2385 128.62 28.3285 129.71 30.3685C130.8 32.4085 131.95 32.1485 132.5 32.9585C133.05 33.7685 135.3 47.4685 132.89 49.6585C130.48 51.8485 123.23 48.3885 122.28 45.8685C121.33 43.3485 123.07 37.1685 123.54 35.7585C124.034 33.3232 123.89 30.8013 123.12 28.4385C122.28 26.0485 124.37 22.8485 124.37 22.8485Z" fill="#263238"/>
<path d="M120.09 28.7784C120.349 29.7757 120.805 30.7108 121.432 31.5284C122.059 32.3461 122.844 33.0296 123.74 33.5384C125.95 34.5384 126.22 31.9684 125.79 29.5384C125.4 27.3284 124.79 25.5384 123 24.6784C120.89 23.5884 119.36 26.3584 120.09 28.7784Z" fill="#FFC3BD"/>
</svg>
