<svg width="2000" height="1223" viewBox="0 0 2000 1223" fill="none" xmlns="http://www.w3.org/2000/svg">
<path opacity="0.4" d="M568.499 926.328C770.393 926.328 934.06 831.834 934.06 715.269C934.06 598.705 770.393 504.211 568.499 504.211C366.606 504.211 202.938 598.705 202.938 715.269C202.938 831.834 366.606 926.328 568.499 926.328Z" fill="url(#paint0_radial_5_2232)"/>
<path opacity="0.4" d="M399.848 926.328C601.742 926.328 765.409 831.834 765.409 715.269C765.409 598.705 601.742 504.211 399.848 504.211C197.954 504.211 34.2874 598.705 34.2874 715.269C34.2874 831.834 197.954 926.328 399.848 926.328Z" fill="url(#paint1_radial_5_2232)"/>
<path opacity="0.3" d="M462.365 796.619C439.453 796.619 416.128 793.525 394.027 787.028C349.724 773.995 319.418 749.541 310.882 719.945C304.899 699.204 310.525 677.678 326.721 659.32L326.726 659.315L328.464 657.346C367.294 613.344 456.443 596.158 531.413 618.212C575.716 631.245 606.022 655.694 614.558 685.29C620.541 706.036 614.915 727.562 598.719 745.916L596.976 747.89C569.598 778.923 517.182 796.619 462.365 796.619ZM342.116 672.919C330.573 686.009 326.591 700.302 330.617 714.259C337.07 736.639 362.945 756.474 399.826 767.328C466.639 786.985 548.172 772.165 581.589 734.299L583.332 732.325C594.875 719.239 598.858 704.947 594.832 690.99C588.378 668.606 562.504 648.77 525.622 637.916C458.813 618.264 377.281 633.079 343.859 670.946L342.116 672.919Z" fill="#6EE8FC"/>
<path d="M461.546 787.508C439.614 787.508 417.378 784.606 396.545 778.479C355.223 766.322 327.122 744.09 319.453 717.483C314.272 699.518 319.096 681.447 333.406 665.224L335.144 663.255C371.259 622.329 458.186 605.976 528.903 626.77C570.221 638.927 598.326 661.163 605.996 687.77C611.177 705.736 606.353 723.806 592.043 740.025L590.304 741.994C564.826 770.858 514.066 787.508 461.546 787.508ZM335.436 667.015C321.762 682.506 317.139 699.696 322.05 716.725C329.357 742.046 357.489 764.165 397.308 775.878C467.119 796.414 552.786 780.401 588.265 740.194L590.004 738.225C603.677 722.738 608.301 705.548 603.39 688.515C596.082 663.189 567.95 641.08 528.128 629.362C458.317 608.826 372.649 624.839 337.17 665.046L335.436 667.015Z" fill="#6EE8FC"/>
<path d="M462.787 771.276C429.71 771.276 396.641 764.008 371.464 749.471C346.94 735.31 333.432 716.442 333.432 696.341C333.432 676.244 346.94 657.376 371.464 643.215C421.818 614.142 503.743 614.142 554.098 643.215C578.626 657.376 592.13 676.244 592.13 696.349C592.13 716.446 578.622 735.314 554.102 749.476C528.929 764.008 495.856 771.276 462.787 771.276ZM462.779 622.8C429.967 622.8 397.146 630.011 372.169 644.439C348.103 658.331 334.843 676.767 334.843 696.341C334.843 715.919 348.103 734.355 372.169 748.247C422.137 777.098 503.429 777.102 553.396 748.251C577.463 734.355 590.718 715.923 590.718 696.349C590.718 676.771 577.463 658.331 553.392 644.439C528.406 630.011 495.595 622.8 462.779 622.8Z" fill="url(#paint2_linear_5_2232)"/>
<path opacity="0.6" d="M462.783 759.053C522.773 759.053 571.405 730.976 571.405 696.341C571.405 661.706 522.773 633.628 462.783 633.628C402.792 633.628 354.16 661.706 354.16 696.341C354.16 730.976 402.792 759.053 462.783 759.053Z" fill="#0C0F38"/>
<path d="M591.42 664.113V622.072H568.647C564.277 618.421 559.375 614.913 553.745 611.662C503.508 582.655 422.054 582.655 371.812 611.662C366.182 614.913 361.276 618.421 356.905 622.072H334.133V664.178C334.133 683.186 346.696 702.193 371.812 716.695C422.049 745.702 503.503 745.702 553.741 716.695C578.896 702.175 591.45 683.142 591.42 664.113Z" fill="url(#paint3_linear_5_2232)"/>
<path d="M335.318 663.085V622.068H334.133V664.174C334.133 681.19 344.277 698.18 364.409 711.962C345.044 697.631 335.323 680.366 335.318 663.085Z" fill="#D4088C"/>
<path d="M589.389 622.068V662.758C589.419 681.787 576.866 700.825 551.719 715.344C501.481 744.347 420.027 744.347 369.79 715.344C367.232 713.866 364.897 712.315 362.6 710.751C365.468 712.799 368.518 714.79 371.816 716.694C422.054 745.702 503.508 745.702 553.745 716.694C578.892 702.175 591.446 683.138 591.415 664.109V622.068H589.389Z" fill="#6EE8FC"/>
<path d="M462.783 696.341C533.832 696.341 591.428 663.088 591.428 622.068C591.428 581.048 533.832 547.795 462.783 547.795C391.734 547.795 334.137 581.048 334.137 622.068C334.137 663.088 391.734 696.341 462.783 696.341Z" fill="url(#paint4_linear_5_2232)"/>
<path d="M375.289 570.319C400.807 555.586 434.141 548.148 467.585 547.93C433.078 547.189 398.157 554.34 371.812 569.552C332.673 592.15 323.679 626.103 346.02 653.089C326.791 625.471 336.534 592.694 375.289 570.319Z" fill="#D4088C"/>
<path d="M553.745 569.552C540.398 561.848 524.82 556.253 508.235 552.64C523.125 556.261 537.099 561.534 549.23 568.536C599.472 597.544 599.472 644.57 549.235 673.573C512.344 694.872 458.647 700.467 412.811 690.484C459.593 701.862 515.639 696.589 553.745 674.588C603.986 645.585 603.982 598.559 553.745 569.552Z" fill="#6EE8FC"/>
<path d="M462.16 669.533C507.564 669.533 544.372 648.282 544.372 622.068C544.372 595.853 507.564 574.602 462.16 574.602C416.755 574.602 379.947 595.853 379.947 622.068C379.947 648.282 416.755 669.533 462.16 669.533Z" fill="#6DE0F6"/>
<path d="M404.026 613.946C436.132 595.409 488.187 595.409 520.292 613.946C530.685 619.946 537.657 627.157 541.321 634.787C548.982 618.839 542.006 601.043 520.292 588.502C488.187 569.966 436.132 569.966 404.026 588.502C382.313 601.039 375.341 618.839 382.997 634.783C386.662 627.157 393.634 619.946 404.026 613.946Z" fill="#18D0F7"/>
<path d="M404.027 604.961C436.132 586.424 488.187 586.424 520.293 604.961C532.707 612.129 540.263 621.018 543.078 630.295C547.544 615.575 539.988 599.875 520.293 588.502C488.187 569.966 436.132 569.966 404.027 588.502C384.335 599.871 376.775 615.571 381.246 630.29C384.056 621.018 391.612 612.129 404.027 604.961Z" fill="#25BFEC"/>
<path d="M404.027 596.96C436.133 578.423 488.187 578.423 520.293 596.96C534.485 605.152 542.376 615.597 544.023 626.299C546.102 612.782 538.211 598.851 520.293 588.506C488.187 569.97 436.133 569.97 404.027 588.506C386.113 598.851 378.218 612.778 380.3 626.294C381.943 615.592 389.839 605.152 404.027 596.96Z" fill="#267FE5"/>
<path d="M529.351 564.711C526.759 563.787 523.36 564.253 521.765 565.752C520.166 567.251 520.976 569.212 523.569 570.131C526.162 571.055 529.561 570.589 531.155 569.09C532.75 567.595 531.944 565.634 529.351 564.711Z" fill="#6EE8FC"/>
<path opacity="0.8" d="M547.509 573.522C545.313 572.345 541.883 572.419 539.844 573.687C537.805 574.955 537.931 576.933 540.127 578.11C542.323 579.286 545.753 579.212 547.792 577.944C549.831 576.681 549.705 574.698 547.509 573.522Z" fill="#6EE8FC"/>
<path opacity="0.6" d="M562.407 584.171C560.651 582.768 557.261 582.454 554.834 583.47C552.407 584.481 551.862 586.441 553.618 587.84C555.374 589.243 558.764 589.557 561.187 588.542C563.618 587.526 564.163 585.57 562.407 584.171Z" fill="#6EE8FC"/>
<path opacity="0.4" d="M573.418 596.293C572.172 594.72 568.952 594.032 566.229 594.751C563.505 595.47 562.311 597.331 563.558 598.899C564.804 600.472 568.024 601.161 570.747 600.442C573.471 599.723 574.665 597.862 573.418 596.293Z" fill="#6EE8FC"/>
<path opacity="0.2" d="M580.125 609.418C579.432 607.736 576.508 606.695 573.593 607.096C570.678 607.497 568.878 609.183 569.571 610.865C570.264 612.547 573.188 613.588 576.103 613.187C579.018 612.791 580.817 611.1 580.125 609.418Z" fill="#6EE8FC"/>
<path opacity="0.1" d="M581.719 624.543C583.035 622.992 581.92 621.114 579.227 620.355C576.538 619.597 573.287 620.242 571.976 621.793C570.66 623.349 571.775 625.223 574.468 625.981C577.157 626.739 580.403 626.094 581.719 624.543Z" fill="#6EE8FC"/>
<path d="M591.42 573.626V531.585H568.647C564.277 527.929 559.375 524.426 553.745 521.175C503.508 492.167 422.054 492.167 371.812 521.175C366.182 524.426 361.276 527.933 356.905 531.585H334.133V573.691C334.133 592.698 346.696 611.706 371.812 626.207C422.049 655.215 503.503 655.215 553.741 626.207C578.896 611.693 591.45 592.659 591.42 573.626Z" fill="url(#paint5_linear_5_2232)"/>
<path d="M335.318 572.602V531.585H334.133V573.691C334.133 590.707 344.277 607.697 364.409 621.479C345.044 607.148 335.323 589.879 335.318 572.602Z" fill="#D4088C"/>
<path d="M589.389 531.585V572.275C589.419 591.304 576.866 610.342 551.719 624.861C501.481 653.864 420.027 653.864 369.79 624.861C367.232 623.384 364.897 621.832 362.6 620.268C365.468 622.316 368.518 624.307 371.816 626.212C422.054 655.219 503.508 655.219 553.745 626.212C578.892 611.693 591.446 592.655 591.415 573.626V531.585H589.389Z" fill="#6EE8FC"/>
<path d="M462.783 605.858C533.832 605.858 591.428 572.605 591.428 531.585C591.428 490.565 533.832 457.312 462.783 457.312C391.734 457.312 334.137 490.565 334.137 531.585C334.137 572.605 391.734 605.858 462.783 605.858Z" fill="url(#paint6_linear_5_2232)"/>
<path d="M375.289 479.836C400.807 465.103 434.141 457.665 467.585 457.447C433.078 456.706 398.157 463.857 371.812 479.069C332.673 501.667 323.679 535.62 346.02 562.606C326.791 534.984 336.534 502.211 375.289 479.836Z" fill="#D4088C"/>
<path d="M553.745 479.069C540.398 471.365 524.82 465.77 508.235 462.158C523.125 465.779 537.099 471.051 549.23 478.054C599.472 507.061 599.472 554.087 549.235 583.09C512.344 604.39 458.647 609.985 412.811 600.002C459.593 611.379 515.639 606.106 553.745 584.106C603.986 555.102 603.982 508.072 553.745 479.069Z" fill="#6EE8FC"/>
<path d="M520.292 565.15C488.187 583.687 436.132 583.687 404.027 565.15C371.921 546.614 371.921 516.56 404.027 498.024C436.132 479.487 488.187 479.487 520.292 498.024C552.394 516.56 552.398 546.614 520.292 565.15Z" fill="#6DE0F6"/>
<path d="M404.026 523.463C436.132 504.926 488.187 504.926 520.292 523.463C530.685 529.463 537.657 536.674 541.321 544.304C548.982 528.356 542.006 510.556 520.292 498.019C488.187 479.483 436.132 479.483 404.026 498.019C382.313 510.556 375.341 528.356 382.997 544.3C386.662 536.675 393.634 529.463 404.026 523.463Z" fill="#18D0F7"/>
<path d="M404.027 514.478C436.132 495.941 488.187 495.941 520.293 514.478C532.707 521.646 540.263 530.535 543.078 539.812C547.544 525.092 539.988 509.392 520.293 498.019C488.187 479.483 436.132 479.483 404.027 498.019C384.335 509.388 376.775 525.088 381.246 539.807C384.056 530.535 391.612 521.641 404.027 514.478Z" fill="#25BFEC"/>
<path d="M404.027 506.477C436.133 487.94 488.187 487.94 520.293 506.477C534.485 514.669 542.376 525.114 544.023 535.816C546.102 522.299 538.211 508.368 520.293 498.024C488.187 479.487 436.133 479.487 404.027 498.024C386.113 508.368 378.218 522.295 380.3 535.812C381.943 525.11 389.839 514.665 404.027 506.477Z" fill="#267FE5"/>
<path d="M529.351 474.228C526.759 473.304 523.36 473.77 521.765 475.269C520.166 476.768 520.976 478.729 523.569 479.648C526.162 480.572 529.561 480.106 531.155 478.607C532.75 477.112 531.944 475.147 529.351 474.228Z" fill="#6EE8FC"/>
<path opacity="0.8" d="M547.509 483.038C545.313 481.862 541.883 481.936 539.844 483.204C537.805 484.472 537.931 486.45 540.127 487.627C542.323 488.803 545.753 488.729 547.792 487.461C549.831 486.193 549.705 484.215 547.509 483.038Z" fill="#6EE8FC"/>
<path opacity="0.6" d="M562.407 493.684C560.651 492.285 557.261 491.967 554.834 492.982C552.407 493.993 551.862 495.954 553.618 497.353C555.374 498.756 558.764 499.069 561.187 498.054C563.618 497.043 564.163 495.087 562.407 493.684Z" fill="#6EE8FC"/>
<path opacity="0.4" d="M573.418 505.806C572.172 504.233 568.952 503.545 566.229 504.264C563.505 504.983 562.311 506.843 563.558 508.412C564.804 509.985 568.024 510.673 570.747 509.954C573.471 509.235 574.665 507.379 573.418 505.806Z" fill="#6EE8FC"/>
<path opacity="0.2" d="M580.125 518.935C579.432 517.253 576.508 516.216 573.593 516.613C570.678 517.014 568.878 518.7 569.571 520.382C570.264 522.064 573.188 523.101 576.103 522.705C579.018 522.308 580.817 520.617 580.125 518.935Z" fill="#6EE8FC"/>
<path opacity="0.1" d="M581.719 534.056C583.035 532.5 581.92 530.626 579.227 529.868C576.538 529.11 573.287 529.755 571.976 531.306C570.66 532.862 571.775 534.735 574.468 535.494C577.157 536.256 580.403 535.611 581.719 534.056Z" fill="#6EE8FC"/>
<path opacity="0.5" d="M591.424 478.341L551.593 477.888C503.146 451.16 427.466 450.493 377.678 475.906L334.077 475.409V529.555H334.221C333.292 549.233 345.803 569.086 371.817 584.106C422.058 613.113 503.508 613.113 553.745 584.106C579.759 569.086 592.27 549.233 591.341 529.555H591.424V478.341Z" fill="#6EE8FC"/>
<path d="M591.42 483.143V441.103H568.647C564.277 437.451 559.375 433.943 553.745 430.693C503.508 401.689 422.054 401.685 371.812 430.693C366.182 433.943 361.276 437.451 356.905 441.103H334.133V483.209C334.133 502.216 346.696 521.223 371.812 535.725C422.049 564.733 503.503 564.733 553.741 535.725C578.896 521.21 591.45 502.173 591.42 483.143Z" fill="url(#paint7_linear_5_2232)"/>
<path d="M335.318 482.119V441.103H334.133V483.209C334.133 500.225 344.277 517.214 364.409 530.997C345.044 516.665 335.323 499.397 335.318 482.119Z" fill="#D4088C"/>
<path d="M589.389 441.103V481.793C589.419 500.822 576.866 519.859 551.719 534.378C501.481 563.382 420.027 563.382 369.79 534.378C367.232 532.901 364.897 531.35 362.6 529.786C365.468 531.834 368.518 533.825 371.816 535.729C422.054 564.737 503.508 564.737 553.745 535.729C578.892 521.21 591.446 502.172 591.415 483.143V441.103H589.389Z" fill="#6EE8FC"/>
<path d="M462.783 515.376C533.832 515.376 591.428 482.122 591.428 441.103C591.428 400.083 533.832 366.83 462.783 366.83C391.734 366.83 334.137 400.083 334.137 441.103C334.137 482.122 391.734 515.376 462.783 515.376Z" fill="url(#paint8_linear_5_2232)"/>
<path d="M375.289 389.353C400.807 374.621 434.141 367.183 467.585 366.965C433.078 366.224 398.157 373.375 371.812 388.586C332.673 411.184 323.679 445.138 346.02 472.119C326.791 444.501 336.534 411.729 375.289 389.353Z" fill="#D4088C"/>
<path d="M553.745 388.582C540.398 380.878 524.82 375.283 508.235 371.671C523.125 375.292 537.099 380.564 549.23 387.567C599.472 416.574 599.472 463.6 549.235 492.603C512.344 513.903 458.647 519.498 412.811 509.515C459.593 520.892 515.639 515.62 553.745 493.619C603.986 464.616 603.982 417.59 553.745 388.582Z" fill="#6EE8FC"/>
<path d="M462.16 488.568C507.564 488.568 544.372 467.317 544.372 441.102C544.372 414.888 507.564 393.636 462.16 393.636C416.755 393.636 379.947 414.888 379.947 441.102C379.947 467.317 416.755 488.568 462.16 488.568Z" fill="#6DE0F6"/>
<path d="M404.026 432.98C436.132 414.444 488.187 414.444 520.292 432.98C530.685 438.981 537.657 446.192 541.321 453.826C548.982 437.878 542.006 420.078 520.292 407.542C488.187 389.005 436.132 389.005 404.026 407.542C382.313 420.078 375.341 437.878 382.997 453.822C386.662 446.188 393.634 438.976 404.026 432.98Z" fill="#18D0F7"/>
<path d="M404.027 423.995C436.132 405.458 488.187 405.458 520.293 423.995C532.707 431.163 540.263 440.052 543.078 449.329C547.544 434.61 539.988 418.91 520.293 407.537C488.187 389 436.132 389 404.027 407.537C384.335 418.906 376.775 434.606 381.246 449.325C384.056 440.052 391.612 431.159 404.027 423.995Z" fill="#25BFEC"/>
<path d="M404.027 415.991C436.133 397.454 488.187 397.454 520.293 415.991C534.485 424.183 542.376 434.627 544.023 445.329C546.102 431.812 538.211 417.882 520.293 407.537C488.187 389 436.133 389 404.027 407.537C386.113 417.882 378.218 431.812 380.3 445.325C381.943 434.623 389.839 424.183 404.027 415.991Z" fill="#267FE5"/>
<path d="M529.351 383.745C526.759 382.822 523.36 383.288 521.765 384.787C520.166 386.286 520.976 388.247 523.569 389.166C526.162 390.09 529.561 389.624 531.155 388.125C532.75 386.626 531.944 384.665 529.351 383.745Z" fill="#6EE8FC"/>
<path opacity="0.8" d="M547.509 392.556C545.313 391.38 541.883 391.454 539.844 392.722C537.805 393.99 537.931 395.968 540.127 397.145C542.323 398.321 545.753 398.247 547.792 396.979C549.831 395.711 549.705 393.733 547.509 392.556Z" fill="#6EE8FC"/>
<path opacity="0.6" d="M562.407 403.201C560.651 401.798 557.261 401.484 554.834 402.5C552.407 403.511 551.862 405.472 553.618 406.87C555.374 408.269 558.764 408.587 561.187 407.572C563.618 406.561 564.163 404.604 562.407 403.201Z" fill="#6EE8FC"/>
<path opacity="0.4" d="M573.418 415.324C572.172 413.751 568.952 413.062 566.229 413.781C563.505 414.5 562.311 416.361 563.558 417.93C564.804 419.503 568.024 420.191 570.747 419.472C573.471 418.753 574.665 416.897 573.418 415.324Z" fill="#6EE8FC"/>
<path opacity="0.2" d="M580.125 428.453C579.432 426.771 576.508 425.729 573.593 426.13C570.678 426.531 568.878 428.218 569.571 429.9C570.264 431.581 573.188 432.623 576.103 432.222C579.018 431.821 580.817 430.135 580.125 428.453Z" fill="#6EE8FC"/>
<path opacity="0.1" d="M581.719 443.573C583.035 442.022 581.92 440.144 579.227 439.386C576.538 438.628 573.287 439.272 571.976 440.824C570.66 442.379 571.775 444.253 574.468 445.011C577.157 445.774 580.403 445.129 581.719 443.573Z" fill="#6EE8FC"/>
<path d="M591.42 392.661V350.62H568.647C564.277 346.964 559.375 343.46 553.745 340.21C503.508 311.202 422.054 311.202 371.812 340.21C366.182 343.46 361.276 346.968 356.905 350.62H334.133V392.726C334.133 411.733 346.696 430.741 371.812 445.242C422.049 474.25 503.503 474.25 553.741 445.242C578.896 430.727 591.45 411.69 591.42 392.661Z" fill="url(#paint9_linear_5_2232)"/>
<path d="M335.318 391.632V350.615H334.133V392.722C334.133 409.737 344.277 426.727 364.409 440.51C345.044 426.183 335.323 408.914 335.318 391.632Z" fill="#D4088C"/>
<path d="M589.389 350.62V391.31C589.419 410.339 576.866 429.376 551.719 443.895C501.481 472.899 420.027 472.899 369.79 443.895C367.232 442.418 364.897 440.867 362.6 439.303C365.468 441.351 368.518 443.342 371.816 445.246C422.054 474.254 503.508 474.254 553.745 445.246C578.892 430.727 591.446 411.689 591.415 392.66V350.62H589.389Z" fill="#6EE8FC"/>
<path d="M462.783 424.893C533.832 424.893 591.428 391.639 591.428 350.62C591.428 309.6 533.832 276.347 462.783 276.347C391.734 276.347 334.137 309.6 334.137 350.62C334.137 391.639 391.734 424.893 462.783 424.893Z" fill="url(#paint10_linear_5_2232)"/>
<path d="M375.289 298.866C400.807 284.133 434.141 276.695 467.585 276.477C433.078 275.737 398.157 282.887 371.812 298.099C332.673 320.697 323.679 354.65 346.02 381.636C326.791 354.018 336.534 321.246 375.289 298.866Z" fill="#D4088C"/>
<path d="M553.745 298.099C540.398 290.395 524.82 284.8 508.235 281.188C523.125 284.809 537.099 290.082 549.23 297.084C599.472 326.092 599.472 373.117 549.235 402.121C512.344 423.42 458.647 429.015 412.811 419.032C459.593 430.409 515.639 425.137 553.745 403.136C603.986 374.133 603.982 327.107 553.745 298.099Z" fill="#6EE8FC"/>
<path d="M520.292 384.181C488.187 402.717 436.132 402.717 404.027 384.181C371.921 365.644 371.921 335.591 404.027 317.054C436.132 298.517 488.187 298.517 520.292 317.054C552.394 335.591 552.398 365.644 520.292 384.181Z" fill="#6DE0F6"/>
<path d="M404.026 342.497C436.132 323.96 488.187 323.96 520.292 342.497C530.685 348.497 537.657 355.709 541.321 363.339C548.982 347.39 542.006 329.595 520.292 317.054C488.187 298.517 436.132 298.517 404.026 317.054C382.313 329.59 375.341 347.391 382.997 363.334C386.662 355.705 393.634 348.493 404.026 342.497Z" fill="#18D0F7"/>
<path d="M404.027 333.508C436.132 314.971 488.187 314.971 520.293 333.508C532.707 340.676 540.263 349.565 543.078 358.842C547.544 344.123 539.988 328.423 520.293 317.05C488.187 298.513 436.132 298.513 404.027 317.05C384.335 328.418 376.775 344.118 381.246 358.838C384.056 349.565 391.612 340.676 404.027 333.508Z" fill="#25BFEC"/>
<path d="M404.027 325.507C436.133 306.971 488.187 306.971 520.293 325.507C534.485 333.699 542.376 344.144 544.023 354.846C546.102 341.329 538.211 327.398 520.293 317.054C488.187 298.517 436.133 298.517 404.027 317.054C386.113 327.398 378.218 341.325 380.3 354.842C381.943 344.14 389.839 333.699 404.027 325.507Z" fill="#267FE5"/>
<path d="M529.351 293.258C526.759 292.334 523.36 292.8 521.765 294.299C520.166 295.798 520.976 297.759 523.569 298.679C526.162 299.602 529.561 299.136 531.155 297.637C532.75 296.143 531.944 294.182 529.351 293.258Z" fill="#6EE8FC"/>
<path opacity="0.8" d="M547.509 302.069C545.313 300.893 541.883 300.967 539.844 302.235C537.805 303.503 537.931 305.481 540.127 306.657C542.323 307.834 545.753 307.76 547.792 306.492C549.831 305.228 549.705 303.246 547.509 302.069Z" fill="#6EE8FC"/>
<path opacity="0.6" d="M562.407 312.719C560.651 311.315 557.261 311.002 554.834 312.017C552.407 313.032 551.862 314.989 553.618 316.387C555.374 317.791 558.764 318.104 561.187 317.089C563.618 316.078 564.163 314.117 562.407 312.719Z" fill="#6EE8FC"/>
<path opacity="0.4" d="M573.418 324.841C572.172 323.268 568.952 322.579 566.229 323.298C563.505 324.017 562.311 325.878 563.558 327.447C564.804 329.02 568.024 329.708 570.747 328.989C573.471 328.27 574.665 326.41 573.418 324.841Z" fill="#6EE8FC"/>
<path opacity="0.2" d="M580.125 337.97C579.432 336.288 576.508 335.246 573.593 335.647C570.678 336.048 568.878 337.735 569.571 339.417C570.264 341.099 573.188 342.136 576.103 341.739C579.018 341.338 580.817 339.652 580.125 337.97Z" fill="#6EE8FC"/>
<path opacity="0.1" d="M581.719 353.091C583.035 351.535 581.92 349.661 579.227 348.903C576.538 348.145 573.287 348.79 571.976 350.341C570.66 351.897 571.775 353.77 574.468 354.529C577.157 355.287 580.403 354.642 581.719 353.091Z" fill="#6EE8FC"/>
<path opacity="0.5" d="M591.424 297.372L551.593 296.918C503.146 270.19 427.466 269.527 377.678 294.936L334.077 294.439V348.585H334.221C333.292 368.263 345.803 388.116 371.817 403.136C422.058 432.144 503.508 432.144 553.745 403.136C579.759 388.116 592.27 368.263 591.341 348.58H591.424V297.372Z" fill="#6EE8FC"/>
<path d="M591.42 302.174V260.133H568.647C564.277 256.481 559.375 252.974 553.745 249.723C503.508 220.72 422.054 220.715 371.812 249.723C366.182 252.974 361.276 256.481 356.905 260.133H334.133V302.239C334.133 321.246 346.696 340.253 371.812 354.755C422.049 383.763 503.503 383.763 553.741 354.755C578.896 340.24 591.45 321.207 591.42 302.174Z" fill="url(#paint11_linear_5_2232)"/>
<path d="M335.318 301.149V260.133H334.133V302.239C334.133 319.255 344.277 336.244 364.409 350.027C345.044 335.7 335.323 318.431 335.318 301.149Z" fill="#D4088C"/>
<path d="M589.389 260.133V300.823C589.419 319.852 576.866 338.889 551.719 353.408C501.481 382.412 420.027 382.412 369.79 353.408C367.232 351.931 364.897 350.38 362.6 348.816C365.468 350.864 368.518 352.855 371.816 354.759C422.054 383.767 503.508 383.767 553.745 354.759C578.892 340.24 591.446 321.202 591.415 302.173V260.133H589.389Z" fill="#6EE8FC"/>
<path d="M553.749 312.653C503.512 341.656 422.058 341.656 371.821 312.653C321.584 283.646 321.579 236.62 371.816 207.616C422.054 178.613 503.508 178.613 553.749 207.616C603.982 236.624 603.986 283.65 553.749 312.653Z" fill="url(#paint12_linear_5_2232)"/>
<path d="M375.289 208.383C400.807 193.651 434.141 186.212 467.585 185.995C433.078 185.254 398.157 192.404 371.812 207.616C332.673 230.214 323.679 264.167 346.02 291.153C326.791 263.536 336.534 230.759 375.289 208.383Z" fill="#D4088C"/>
<path d="M553.745 207.617C540.398 199.913 524.82 194.318 508.235 190.705C523.125 194.326 537.099 199.599 549.23 206.601C599.472 235.609 599.472 282.635 549.235 311.638C512.344 332.937 458.647 338.532 412.811 328.549C459.593 339.927 515.639 334.654 553.745 312.653C603.986 283.65 603.982 236.624 553.745 207.617Z" fill="#6EE8FC"/>
<path d="M462.16 307.599C507.564 307.599 544.372 286.347 544.372 260.133C544.372 233.918 507.564 212.667 462.16 212.667C416.755 212.667 379.947 233.918 379.947 260.133C379.947 286.347 416.755 307.599 462.16 307.599Z" fill="#6DE0F6"/>
<path d="M404.026 252.01C436.132 233.474 488.187 233.474 520.292 252.01C530.685 258.011 537.657 265.222 541.321 272.852C548.982 256.904 542.006 239.103 520.292 226.567C488.187 208.03 436.132 208.03 404.026 226.567C382.313 239.103 375.341 256.904 382.997 272.848C386.662 265.222 393.634 258.011 404.026 252.01Z" fill="#18D0F7"/>
<path d="M404.027 243.025C436.132 224.489 488.187 224.489 520.293 243.025C532.707 250.193 540.263 259.082 543.078 268.359C547.544 253.64 539.988 237.94 520.293 226.567C488.187 208.03 436.132 208.03 404.027 226.567C384.335 237.936 376.775 253.636 381.246 268.355C384.056 259.082 391.612 250.193 404.027 243.025Z" fill="#25BFEC"/>
<path d="M404.027 235.025C436.133 216.489 488.187 216.489 520.293 235.025C534.485 243.217 542.376 253.662 544.023 264.364C546.102 250.847 538.211 236.916 520.293 226.572C488.187 208.035 436.133 208.035 404.027 226.572C386.113 236.916 378.218 250.843 380.3 264.36C381.943 253.658 389.839 243.217 404.027 235.025Z" fill="#267FE5"/>
<path d="M529.351 202.775C526.759 201.851 523.36 202.318 521.765 203.817C520.166 205.316 520.976 207.277 523.569 208.196C526.162 209.12 529.561 208.653 531.155 207.155C532.75 205.66 531.944 203.699 529.351 202.775Z" fill="#6EE8FC"/>
<path opacity="0.8" d="M547.509 211.586C545.313 210.41 541.883 210.484 539.844 211.752C537.805 213.02 537.931 214.998 540.127 216.175C542.323 217.351 545.753 217.277 547.792 216.009C549.831 214.745 549.705 212.763 547.509 211.586Z" fill="#6EE8FC"/>
<path opacity="0.6" d="M562.407 222.236C560.651 220.833 557.261 220.519 554.834 221.534C552.407 222.545 551.862 224.506 553.618 225.905C555.374 227.308 558.764 227.621 561.187 226.606C563.618 225.591 564.163 223.634 562.407 222.236Z" fill="#6EE8FC"/>
<path opacity="0.4" d="M573.418 234.358C572.172 232.785 568.952 232.096 566.229 232.815C563.505 233.534 562.311 235.395 563.558 236.964C564.804 238.537 568.024 239.225 570.747 238.506C573.471 237.787 574.665 235.927 573.418 234.358Z" fill="#6EE8FC"/>
<path opacity="0.2" d="M580.125 247.483C579.432 245.801 576.508 244.76 573.593 245.161C570.678 245.561 568.878 247.248 569.571 248.93C570.264 250.612 573.188 251.653 576.103 251.252C579.018 250.856 580.817 249.165 580.125 247.483Z" fill="#6EE8FC"/>
<path opacity="0.1" d="M581.719 262.608C583.035 261.056 581.92 259.178 579.227 258.42C576.538 257.662 573.287 258.307 571.976 259.858C570.66 261.414 571.775 263.287 574.468 264.046C577.157 264.804 580.403 264.159 581.719 262.608Z" fill="#6EE8FC"/>
<path d="M464.617 362.925C469.079 362.925 472.696 359.308 472.696 354.847C472.696 350.385 469.079 346.768 464.617 346.768C460.155 346.768 456.538 350.385 456.538 354.847C456.538 359.308 460.155 362.925 464.617 362.925Z" fill="#6DE0F6"/>
<path d="M464.617 359.897C460.674 359.897 457.401 357.069 456.691 353.33C456.599 353.822 456.538 354.328 456.538 354.847C456.538 359.309 460.155 362.925 464.622 362.925C469.084 362.925 472.7 359.309 472.7 354.847C472.7 354.328 472.639 353.822 472.548 353.33C471.838 357.069 468.561 359.897 464.617 359.897Z" fill="#267FE5"/>
<path d="M464.617 453.408C469.079 453.408 472.696 449.791 472.696 445.329C472.696 440.867 469.079 437.25 464.617 437.25C460.155 437.25 456.538 440.867 456.538 445.329C456.538 449.791 460.155 453.408 464.617 453.408Z" fill="#6DE0F6"/>
<path d="M464.617 450.379C460.674 450.379 457.401 447.551 456.691 443.812C456.599 444.305 456.538 444.81 456.538 445.329C456.538 449.791 460.155 453.408 464.622 453.408C469.084 453.408 472.7 449.791 472.7 445.329C472.7 444.81 472.639 444.305 472.548 443.812C471.838 447.551 468.561 450.379 464.617 450.379Z" fill="#267FE5"/>
<path d="M464.617 543.895C469.079 543.895 472.696 540.278 472.696 535.816C472.696 531.355 469.079 527.738 464.617 527.738C460.155 527.738 456.538 531.355 456.538 535.816C456.538 540.278 460.155 543.895 464.617 543.895Z" fill="#6DE0F6"/>
<path d="M464.617 540.867C460.674 540.867 457.401 538.039 456.691 534.3C456.599 534.792 456.538 535.298 456.538 535.816C456.538 540.278 460.155 543.895 464.622 543.895C469.084 543.895 472.7 540.278 472.7 535.816C472.7 535.298 472.639 534.792 472.548 534.3C471.838 538.039 468.561 540.867 464.617 540.867Z" fill="#267FE5"/>
<path d="M464.617 634.378C469.079 634.378 472.696 630.761 472.696 626.299C472.696 621.837 469.079 618.22 464.617 618.22C460.155 618.22 456.538 621.837 456.538 626.299C456.538 630.761 460.155 634.378 464.617 634.378Z" fill="#6DE0F6"/>
<path d="M464.617 631.349C460.674 631.349 457.401 628.521 456.691 624.782C456.599 625.275 456.538 625.78 456.538 626.299C456.538 630.761 460.155 634.378 464.622 634.378C469.084 634.378 472.7 630.761 472.7 626.299C472.7 625.78 472.639 625.275 472.548 624.782C471.838 628.521 468.561 631.349 464.617 631.349Z" fill="#267FE5"/>
<path d="M464.617 724.86C469.079 724.86 472.696 721.243 472.696 716.782C472.696 712.32 469.079 708.703 464.617 708.703C460.155 708.703 456.538 712.32 456.538 716.782C456.538 721.243 460.155 724.86 464.617 724.86Z" fill="#6DE0F6"/>
<path d="M464.617 721.832C460.674 721.832 457.401 719.004 456.691 715.265C456.599 715.758 456.538 716.263 456.538 716.782C456.538 721.244 460.155 724.86 464.622 724.86C469.084 724.86 472.7 721.244 472.7 716.782C472.7 716.263 472.639 715.758 472.548 715.265C471.838 719.004 468.561 721.832 464.617 721.832Z" fill="#267FE5"/>
<path opacity="0.3" d="M1155.01 1170.12C1147.71 1170.12 1140.41 1168.48 1134.73 1165.2L929.942 1046.76C927.14 1045.14 926.186 1041.57 927.807 1038.77C929.419 1035.97 933.014 1035.01 935.798 1036.63L1140.59 1155.06C1148.4 1159.57 1161.61 1159.58 1169.42 1155.06L1817.02 783.782C1819.67 782.252 1821.27 780.401 1821.27 778.841C1821.26 777.285 1819.67 775.437 1817.01 773.895L1612.22 655.459C1609.41 653.842 1608.46 650.265 1610.08 647.467C1611.7 644.666 1615.28 643.707 1618.07 645.332L1822.86 763.764C1829.28 767.472 1832.97 772.962 1832.97 778.841C1832.97 784.719 1829.28 790.214 1822.86 793.926L1175.26 1165.2C1169.59 1168.48 1162.3 1170.12 1155.01 1170.12Z" fill="#6EE8FC"/>
<path d="M1155 1165.42C1148.51 1165.42 1142.02 1163.99 1137.07 1161.14L932.287 1042.71L933.454 1040.69L1138.24 1159.12C1147.49 1164.46 1162.53 1164.46 1171.76 1159.12L1819.35 787.847C1823.6 785.39 1825.95 782.191 1825.95 778.845C1825.95 775.494 1823.6 772.3 1819.34 769.847L1614.56 651.411L1615.72 649.393L1820.51 767.825C1825.52 770.714 1828.28 774.631 1828.28 778.845C1828.28 783.063 1825.52 786.98 1820.51 789.874L1172.93 1161.14C1167.99 1164 1161.5 1165.42 1155 1165.42Z" fill="#6EE8FC"/>
<path d="M1642.42 666.174C1640.97 668.684 1637.75 669.542 1635.24 668.091C1632.73 666.64 1631.87 663.424 1633.32 660.914C1634.78 658.405 1637.99 657.546 1640.5 658.997C1643.02 660.448 1643.87 663.66 1642.42 666.174Z" fill="white"/>
<path d="M1669.7 681.948C1668.24 684.458 1665.03 685.316 1662.52 683.865C1660.01 682.414 1659.15 679.203 1660.6 676.689C1662.05 674.179 1665.27 673.32 1667.78 674.771C1670.29 676.222 1671.15 679.438 1669.7 681.948Z" fill="white"/>
<path d="M1696.97 697.722C1695.52 700.232 1692.31 701.09 1689.8 699.639C1687.29 698.188 1686.43 694.972 1687.88 692.462C1689.33 689.953 1692.55 689.094 1695.06 690.545C1697.57 692.001 1698.43 695.212 1696.97 697.722Z" fill="white"/>
<path d="M1724.25 713.496C1722.8 716.006 1719.59 716.864 1717.07 715.413C1714.56 713.962 1713.71 710.746 1715.16 708.236C1716.61 705.727 1719.82 704.868 1722.33 706.319C1724.85 707.775 1725.71 710.986 1724.25 713.496Z" fill="white"/>
<path d="M1751.53 729.275C1750.08 731.784 1746.87 732.643 1744.36 731.192C1741.85 729.741 1740.99 726.525 1742.44 724.015C1743.89 721.505 1747.11 720.647 1749.62 722.098C1752.13 723.549 1752.98 726.76 1751.53 729.275Z" fill="white"/>
<path d="M1778.81 745.048C1777.36 747.558 1774.14 748.417 1771.63 746.966C1769.12 745.515 1768.27 742.299 1769.72 739.789C1771.17 737.279 1774.38 736.421 1776.89 737.872C1779.4 739.323 1780.26 742.538 1778.81 745.048Z" fill="white"/>
<path d="M1806.09 760.822C1804.64 763.332 1801.42 764.191 1798.91 762.74C1796.4 761.289 1795.54 758.073 1796.99 755.563C1798.45 753.053 1801.66 752.195 1804.17 753.646C1806.68 755.101 1807.54 758.313 1806.09 760.822Z" fill="white"/>
<path d="M1826.7 781.42C1825.31 780.963 1824.21 780.069 1823.34 779.438C1822.45 778.767 1821.85 778.409 1821.69 777.856C1821.43 776.88 1821.98 773.978 1823.9 771.864C1824.93 770.845 1826.34 770.326 1827.85 770.736C1829.36 771.058 1830.94 772.483 1831.69 774.653C1832.41 776.88 1831.83 779.198 1830.7 780.405C1829.56 781.647 1828.05 781.873 1826.7 781.42Z" fill="white"/>
<path d="M1801.52 799.412C1800.08 796.893 1800.95 793.686 1803.46 792.244C1805.98 790.802 1809.19 791.673 1810.63 794.187C1812.07 796.706 1811.2 799.913 1808.69 801.355C1806.17 802.798 1802.96 801.931 1801.52 799.412Z" fill="white"/>
<path d="M1774.18 815.086C1772.74 812.567 1773.61 809.36 1776.13 807.918C1778.64 806.475 1781.85 807.347 1783.29 809.861C1784.74 812.376 1783.87 815.587 1781.35 817.029C1778.83 818.472 1775.63 817.6 1774.18 815.086Z" fill="white"/>
<path d="M1746.84 830.76C1745.4 828.241 1746.27 825.034 1748.79 823.592C1751.31 822.149 1754.51 823.021 1755.96 825.535C1757.4 828.049 1756.53 831.261 1754.01 832.703C1751.5 834.146 1748.29 833.274 1746.84 830.76Z" fill="white"/>
<path d="M1719.51 846.429C1718.06 843.911 1718.93 840.704 1721.45 839.261C1723.97 837.819 1727.17 838.69 1728.62 841.205C1730.06 843.723 1729.19 846.93 1726.67 848.373C1724.16 849.819 1720.95 848.948 1719.51 846.429Z" fill="white"/>
<path d="M1692.17 862.103C1690.73 859.584 1691.6 856.377 1694.11 854.935C1696.63 853.493 1699.84 854.364 1701.28 856.878C1702.73 859.397 1701.85 862.604 1699.34 864.046C1696.82 865.493 1693.61 864.621 1692.17 862.103Z" fill="white"/>
<path d="M1664.83 877.777C1663.39 875.258 1664.26 872.051 1666.78 870.609C1669.29 869.166 1672.5 870.038 1673.94 872.552C1675.39 875.071 1674.51 878.278 1672 879.72C1669.49 881.163 1666.28 880.295 1664.83 877.777Z" fill="white"/>
<path d="M1637.5 893.45C1636.06 890.932 1636.92 887.725 1639.44 886.282C1641.96 884.84 1645.17 885.712 1646.61 888.226C1648.05 890.745 1647.18 893.952 1644.67 895.394C1642.15 896.836 1638.94 895.965 1637.5 893.45Z" fill="white"/>
<path d="M1610.16 909.124C1608.72 906.606 1609.59 903.399 1612.1 901.956C1614.62 900.514 1617.83 901.386 1619.27 903.9C1620.71 906.418 1619.84 909.626 1617.33 911.068C1614.81 912.51 1611.6 911.639 1610.16 909.124Z" fill="white"/>
<path d="M1582.82 924.794C1581.38 922.275 1582.25 919.068 1584.76 917.626C1587.28 916.183 1590.49 917.055 1591.93 919.569C1593.37 922.088 1592.51 925.295 1589.99 926.737C1587.47 928.184 1584.26 927.312 1582.82 924.794Z" fill="white"/>
<path d="M1555.49 940.468C1554.04 937.949 1554.91 934.742 1557.43 933.3C1559.94 931.857 1563.16 932.729 1564.6 935.243C1566.04 937.762 1565.17 940.969 1562.65 942.411C1560.14 943.858 1556.93 942.986 1555.49 940.468Z" fill="white"/>
<path d="M1528.15 956.141C1526.71 953.623 1527.58 950.416 1530.09 948.973C1532.61 947.531 1535.82 948.403 1537.26 950.917C1538.7 953.435 1537.83 956.642 1535.32 958.085C1532.8 959.527 1529.59 958.656 1528.15 956.141Z" fill="white"/>
<path d="M1500.81 971.815C1499.37 969.301 1500.24 966.089 1502.75 964.647C1505.27 963.205 1508.48 964.076 1509.92 966.59C1511.36 969.109 1510.5 972.316 1507.98 973.759C1505.46 975.201 1502.26 974.329 1500.81 971.815Z" fill="white"/>
<path d="M1473.47 987.489C1472.03 984.97 1472.9 981.763 1475.42 980.321C1477.94 978.878 1481.14 979.75 1482.59 982.264C1484.03 984.783 1483.16 987.99 1480.64 989.432C1478.12 990.875 1474.92 990.003 1473.47 987.489Z" fill="white"/>
<path d="M1446.14 1003.16C1444.69 1000.64 1445.56 997.433 1448.08 995.99C1450.6 994.548 1453.81 995.42 1455.25 997.934C1456.69 1000.45 1455.82 1003.66 1453.3 1005.1C1450.79 1006.55 1447.58 1005.68 1446.14 1003.16Z" fill="white"/>
<path d="M1418.8 1018.83C1417.36 1016.31 1418.23 1013.11 1420.75 1011.66C1423.26 1010.22 1426.47 1011.09 1427.91 1013.61C1429.36 1016.13 1428.48 1019.33 1425.97 1020.78C1423.45 1022.22 1420.24 1021.35 1418.8 1018.83Z" fill="white"/>
<path d="M1391.46 1034.51C1390.02 1031.99 1390.89 1028.78 1393.41 1027.34C1395.93 1025.9 1399.13 1026.77 1400.57 1029.28C1402.02 1031.8 1401.15 1035.01 1398.63 1036.45C1396.12 1037.89 1392.91 1037.02 1391.46 1034.51Z" fill="white"/>
<path d="M1364.12 1050.18C1362.68 1047.66 1363.55 1044.45 1366.07 1043.01C1368.58 1041.57 1371.79 1042.44 1373.24 1044.96C1374.68 1047.47 1373.81 1050.68 1371.29 1052.12C1368.78 1053.57 1365.57 1052.69 1364.12 1050.18Z" fill="white"/>
<path d="M1336.79 1065.85C1335.35 1063.33 1336.22 1060.12 1338.73 1058.68C1341.25 1057.24 1344.46 1058.11 1345.9 1060.62C1347.34 1063.14 1346.47 1066.35 1343.96 1067.79C1341.44 1069.24 1338.23 1068.37 1336.79 1065.85Z" fill="white"/>
<path d="M1309.45 1081.52C1308.01 1079 1308.88 1075.8 1311.39 1074.35C1313.91 1072.91 1317.12 1073.78 1318.56 1076.3C1320 1078.82 1319.14 1082.02 1316.62 1083.47C1314.1 1084.91 1310.89 1084.04 1309.45 1081.52Z" fill="white"/>
<path d="M1282.12 1097.2C1280.67 1094.68 1281.54 1091.47 1284.06 1090.03C1286.57 1088.59 1289.79 1089.46 1291.23 1091.97C1292.67 1094.49 1291.8 1097.7 1289.29 1099.14C1286.77 1100.58 1283.56 1099.72 1282.12 1097.2Z" fill="white"/>
<path d="M1254.78 1112.87C1253.34 1110.35 1254.21 1107.15 1256.72 1105.7C1259.24 1104.26 1262.45 1105.13 1263.89 1107.65C1265.33 1110.16 1264.46 1113.37 1261.95 1114.81C1259.43 1116.26 1256.22 1115.38 1254.78 1112.87Z" fill="white"/>
<path d="M1227.44 1128.54C1226 1126.03 1226.86 1122.82 1229.38 1121.38C1231.9 1119.93 1235.11 1120.81 1236.55 1123.32C1237.99 1125.83 1237.13 1129.05 1234.61 1130.49C1232.09 1131.93 1228.88 1131.06 1227.44 1128.54Z" fill="white"/>
<path d="M1200.11 1144.21C1198.66 1141.7 1199.53 1138.49 1202.05 1137.05C1204.56 1135.6 1207.77 1136.48 1209.22 1138.99C1210.66 1141.5 1209.79 1144.72 1207.27 1146.16C1204.75 1147.6 1201.55 1146.73 1200.11 1144.21Z" fill="white"/>
<path d="M1172.77 1159.89C1171.32 1157.37 1172.2 1154.16 1174.71 1152.72C1177.22 1151.28 1180.44 1152.15 1181.88 1154.66C1183.32 1157.18 1182.45 1160.39 1179.93 1161.83C1177.42 1163.28 1174.21 1162.41 1172.77 1159.89Z" fill="white"/>
<path d="M1142.22 1162.19C1143.27 1159.48 1145.88 1157.97 1148.28 1158.39C1150.67 1158.85 1152.61 1161.28 1152.5 1164.2C1152.39 1167.08 1149.61 1169.33 1146.31 1168.71C1142.98 1168.1 1141.17 1164.89 1142.22 1162.19Z" fill="white"/>
<path d="M1114.72 1146.87C1116.18 1144.36 1119.39 1143.5 1121.9 1144.95C1124.41 1146.4 1125.27 1149.62 1123.82 1152.13C1122.37 1154.64 1119.16 1155.5 1116.64 1154.04C1114.13 1152.59 1113.27 1149.38 1114.72 1146.87Z" fill="white"/>
<path d="M1087.45 1131.09C1088.9 1128.58 1092.11 1127.73 1094.62 1129.18C1097.13 1130.63 1097.99 1133.84 1096.54 1136.35C1095.09 1138.86 1091.87 1139.72 1089.36 1138.27C1086.85 1136.81 1086 1133.6 1087.45 1131.09Z" fill="white"/>
<path d="M1060.17 1115.32C1061.62 1112.81 1064.83 1111.95 1067.35 1113.4C1069.86 1114.85 1070.71 1118.06 1069.26 1120.57C1067.81 1123.08 1064.6 1123.94 1062.09 1122.49C1059.57 1121.04 1058.72 1117.83 1060.17 1115.32Z" fill="white"/>
<path d="M1032.89 1099.54C1034.34 1097.03 1037.55 1096.17 1040.07 1097.62C1042.58 1099.07 1043.44 1102.29 1041.99 1104.8C1040.53 1107.31 1037.32 1108.17 1034.81 1106.72C1032.29 1105.27 1031.44 1102.05 1032.89 1099.54Z" fill="white"/>
<path d="M1005.61 1083.77C1007.07 1081.26 1010.28 1080.4 1012.79 1081.85C1015.3 1083.3 1016.16 1086.52 1014.71 1089.03C1013.26 1091.54 1010.04 1092.4 1007.53 1090.94C1005.02 1089.49 1004.16 1086.28 1005.61 1083.77Z" fill="white"/>
<path d="M978.332 1067.99C979.783 1065.48 982.999 1064.62 985.509 1066.07C988.018 1067.52 988.877 1070.74 987.426 1073.25C985.975 1075.76 982.759 1076.62 980.249 1075.17C977.739 1073.71 976.881 1070.5 978.332 1067.99Z" fill="white"/>
<path d="M951.054 1052.21C952.505 1049.7 955.716 1048.85 958.231 1050.3C960.741 1051.75 961.599 1054.96 960.148 1057.47C958.697 1059.98 955.485 1060.84 952.971 1059.39C950.461 1057.94 949.603 1054.72 951.054 1052.21Z" fill="white"/>
<path opacity="0.4" d="M1932.45 738.556C1804.32 897.311 1537.05 1000.4 1335.5 968.822C1133.94 937.239 1074.42 782.936 1202.54 624.177C1330.67 465.421 1597.94 362.328 1799.49 393.911C2001.05 425.498 2060.58 579.8 1932.45 738.556Z" fill="url(#paint13_radial_5_2232)"/>
<path opacity="0.4" d="M797.453 945.535C669.326 1104.29 402.061 1207.38 200.507 1175.8C-1.05195 1144.22 -60.5749 989.916 67.5519 831.156C195.679 672.401 462.944 569.307 664.498 600.89C866.057 632.478 925.58 786.78 797.453 945.535Z" fill="url(#paint14_radial_5_2232)"/>
<path opacity="0.6" d="M808.809 1218.19L337.58 946.123C326.346 939.64 327.754 928.31 340.726 920.82L1298.88 367.627C1311.85 360.14 1331.47 359.326 1342.7 365.809L1813.94 637.877C1825.17 644.36 1823.76 655.69 1810.79 663.176L852.632 1216.37C839.664 1223.86 820.042 1224.67 808.809 1218.19Z" fill="#0C0F38"/>
<path d="M1821.52 538.335L1797.51 552.762L1342.7 290.181C1331.47 283.697 1311.85 284.508 1298.88 291.998L355.807 836.477L329.998 824.938V860.077L330.019 860.064C330.237 863.977 332.717 867.689 337.575 870.495L808.809 1142.56C820.042 1149.05 839.664 1148.24 852.632 1140.75L1810.79 587.552C1818.09 583.338 1821.73 577.909 1821.51 572.811L1821.52 572.815V538.335Z" fill="url(#paint15_linear_5_2232)"/>
<path d="M355.807 836.477L329.998 824.938V860.077L330.019 860.064C330.237 863.977 332.717 867.689 337.575 870.495L338.577 871.075C337.192 869.232 336.434 867.232 336.32 865.17L336.298 865.188V830.049L362.108 841.588L398.536 820.554C396.863 818.589 395.159 816.654 393.399 814.776L355.807 836.477Z" fill="#D4088C"/>
<path d="M1797.51 552.762L1574.25 423.869C1572 425.333 1569.75 426.797 1567.5 428.261L1791.42 557.547L1815.43 543.119V577.595L1815.42 577.591C1815.56 580.807 1814.15 584.149 1811.28 587.239C1818.23 583.068 1821.72 577.787 1821.51 572.811L1821.52 572.815V538.339L1797.51 552.762Z" fill="#6EE8FC"/>
<path d="M808.809 1107.79L337.58 835.723C326.346 829.239 327.754 817.91 340.726 810.423L1298.88 257.23C1311.85 249.74 1331.47 248.929 1342.7 255.413L1813.94 527.48C1825.17 533.964 1823.76 545.294 1810.79 552.78L852.632 1105.97C839.664 1113.46 820.042 1114.27 808.809 1107.79Z" fill="url(#paint16_linear_5_2232)"/>
<path d="M815.328 1107.79L344.094 835.723C332.86 829.239 334.268 817.91 347.24 810.423L1305.4 257.23C1311.66 253.618 1319.46 251.596 1327.13 251.16C1317.55 250.511 1306.94 252.581 1298.88 257.23L340.726 810.423C327.754 817.91 326.346 829.239 337.58 835.723L808.813 1107.79C814.622 1111.15 822.683 1112.51 830.901 1112.04C825.049 1111.65 819.585 1110.25 815.328 1107.79Z" fill="#D4088C"/>
<path d="M1813.94 527.48L1342.7 255.413C1336.9 252.062 1328.85 250.694 1320.64 251.156C1326.56 251.535 1332.1 252.925 1336.4 255.413L1807.64 527.48C1818.87 533.964 1817.46 545.293 1804.49 552.78L846.331 1105.97C840.065 1109.59 832.243 1111.62 824.565 1112.04C834.1 1112.65 844.627 1110.59 852.632 1105.97L1810.79 552.78C1823.76 545.293 1825.17 533.964 1813.94 527.48Z" fill="#6EE8FC"/>
<path d="M862.55 1091.07L366.544 804.698L1283.17 275.484L1779.17 561.852L862.55 1091.07Z" fill="url(#paint17_radial_5_2232)"/>
<path d="M913.214 992.831L536.694 775.446L1232.51 373.723L1609.02 591.104L913.214 992.831Z" fill="url(#paint18_linear_5_2232)"/>
<path d="M1577.26 422.932L1523.78 392.055C1521.76 390.887 1522.02 388.852 1524.35 387.505C1526.68 386.159 1530.2 386.015 1532.23 387.179L1585.7 418.056C1587.72 419.223 1587.47 421.258 1585.13 422.605C1582.81 423.951 1579.28 424.099 1577.26 422.932Z" fill="url(#paint19_radial_5_2232)"/>
<path opacity="0.8" d="M782.899 463.996C782.899 463.996 805.902 209.878 855.189 238.441C904.481 267 880.668 414.33 931.794 443.847C982.109 472.899 954.701 23.0777 1030.68 66.94C1085.21 98.4226 1067.76 440.074 1116.42 468.167C1171.05 499.706 1155.42 371.013 1203.84 376.838C1231.63 380.181 1246.22 463.752 1285.65 482.633C1325.09 501.519 1306.28 139.439 1368.63 175.432C1431.73 211.865 1449.95 849.449 1449.95 849.449L782.899 463.996Z" fill="#6EE1F8"/>
<path d="M857.386 236.049C857.386 241.835 852.697 246.524 846.91 246.524C841.124 246.524 836.435 241.835 836.435 236.049C836.435 230.262 841.124 225.573 846.91 225.573C852.697 225.573 857.386 230.262 857.386 236.049Z" fill="white"/>
<path d="M1031.14 63.9246C1031.14 69.7113 1026.45 74.3999 1020.66 74.3999C1014.88 74.3999 1010.19 69.7113 1010.19 63.9246C1010.19 58.1378 1014.88 53.4492 1020.66 53.4492C1026.45 53.4492 1031.14 58.1378 1031.14 63.9246Z" fill="white"/>
<path d="M1212.92 376.028C1212.92 381.815 1208.23 386.503 1202.44 386.503C1196.66 386.503 1191.97 381.815 1191.97 376.028C1191.97 370.241 1196.66 365.553 1202.44 365.553C1208.23 365.553 1212.92 370.241 1212.92 376.028Z" fill="white"/>
<path d="M1370.88 171.846C1370.88 177.633 1366.19 182.321 1360.41 182.321C1354.62 182.321 1349.93 177.633 1349.93 171.846C1349.93 166.059 1354.62 161.371 1360.41 161.371C1366.19 161.371 1370.88 166.059 1370.88 171.846Z" fill="white"/>
<path opacity="0.8" d="M629.905 539.498C629.905 539.498 647.073 287.061 683.859 308.404C720.644 329.743 702.875 477.517 741.029 499.544C778.581 521.227 758.123 133.164 814.827 165.902C855.525 189.398 842.505 319.272 878.82 340.24C919.589 363.779 912.538 299.227 944.06 317.429C975.534 335.599 975.687 417.794 1005.12 430.975C1034.55 444.157 1020.51 150.124 1067.04 176.987C1114.13 204.178 1127.74 827.247 1127.74 827.247L629.905 539.498Z" fill="#D4088C"/>
<path d="M691.318 307.28C691.318 313.067 686.63 317.756 680.843 317.756C675.056 317.756 670.367 313.067 670.367 307.28C670.367 301.494 675.056 296.805 680.843 296.805C686.63 296.805 691.318 301.494 691.318 307.28Z" fill="white"/>
<path d="M819.136 163.937C819.136 169.724 814.447 174.413 808.66 174.413C802.874 174.413 798.185 169.724 798.185 163.937C798.185 158.151 802.874 153.462 808.66 153.462C814.447 153.462 819.136 158.151 819.136 163.937Z" fill="white"/>
<path d="M944.535 314.775C944.535 320.562 939.846 325.25 934.06 325.25C928.273 325.25 923.584 320.562 923.584 314.775C923.584 308.988 928.273 304.3 934.06 304.3C939.846 304.3 944.535 308.988 944.535 314.775Z" fill="white"/>
<path d="M1071.26 176.064C1071.26 181.851 1066.57 186.539 1060.79 186.539C1055 186.539 1050.31 181.851 1050.31 176.064C1050.31 170.277 1055 165.589 1060.79 165.589C1066.57 165.589 1071.26 170.277 1071.26 176.064Z" fill="white"/>
<path opacity="0.8" d="M832.261 846.704L756.903 803.195L783.266 787.974L858.624 831.483L832.261 846.704Z" fill="#6EE1F8"/>
<path opacity="0.8" d="M879.217 819.962L803.863 776.453L830.222 761.237L905.579 804.742L879.217 819.962Z" fill="#D4088C"/>
<path opacity="0.4" d="M680.843 571.116C679.64 571.116 678.664 570.14 678.664 568.937V307.28C678.664 306.078 679.64 305.102 680.843 305.102C682.046 305.102 683.022 306.078 683.022 307.28V568.937C683.022 570.144 682.046 571.116 680.843 571.116Z" fill="white"/>
<path opacity="0.4" d="M808.661 644.997C807.458 644.997 806.482 644.021 806.482 642.818V163.937C806.482 162.735 807.458 161.759 808.661 161.759C809.863 161.759 810.839 162.735 810.839 163.937V642.818C810.839 644.025 809.863 644.997 808.661 644.997Z" fill="white"/>
<path opacity="0.4" d="M934.06 717.474C932.857 717.474 931.881 716.498 931.881 715.296V314.775C931.881 313.572 932.857 312.596 934.06 312.596C935.263 312.596 936.239 313.572 936.239 314.775V715.296C936.239 716.503 935.267 717.474 934.06 717.474Z" fill="white"/>
<path opacity="0.4" d="M1060.79 790.192C1059.59 790.192 1058.61 789.216 1058.61 788.013V176.983C1058.61 175.781 1059.59 174.804 1060.79 174.804C1061.99 174.804 1062.97 175.781 1062.97 176.983V788.013C1062.97 789.216 1062 790.192 1060.79 790.192Z" fill="white"/>
<path d="M526.458 418.805C525.778 418.805 525.107 418.487 524.68 417.886C523.987 416.901 524.218 415.541 525.199 414.849L679.383 305.646L807.035 162.486C807.458 162.011 808.037 161.776 808.7 161.758C809.331 161.772 809.928 162.055 810.338 162.543L934.138 311.459L1059.18 174.591L1207.64 0.754546C1208.43 -0.160522 1209.8 -0.256385 1210.71 0.510529C1211.63 1.29487 1211.73 2.66745 1210.95 3.58252L1062.44 177.476L935.667 316.244C935.245 316.705 934.657 316.971 934.007 316.954C933.375 316.941 932.787 316.653 932.382 316.17L808.599 167.275L682.468 308.727C682.359 308.849 682.233 308.962 682.102 309.058L527.717 418.404C527.334 418.679 526.898 418.805 526.458 418.805Z" fill="white"/>
<path opacity="0.4" d="M1886.07 969.406C1798.62 991.537 1690.44 962.473 1644.46 904.493C1598.48 846.508 1632.1 781.56 1719.55 759.428C1807.01 737.297 1915.19 766.361 1961.17 824.341C2007.15 882.326 1973.53 947.274 1886.07 969.406Z" fill="url(#paint20_radial_5_2232)"/>
<path opacity="0.4" d="M1644.36 951.706C1756.82 951.706 1847.99 899.07 1847.99 834.141C1847.99 769.212 1756.82 716.577 1644.36 716.577C1531.9 716.577 1440.74 769.212 1440.74 834.141C1440.74 899.07 1531.9 951.706 1644.36 951.706Z" fill="url(#paint21_radial_5_2232)"/>
<path opacity="0.6" d="M1698.64 884.845L1645.19 854.016C1638.69 850.268 1639.51 843.723 1647 839.396L1698.51 809.604C1706.01 805.277 1717.35 804.807 1723.83 808.554L1777.29 839.383C1783.78 843.131 1782.97 849.676 1775.47 854.002L1723.96 883.794C1716.47 888.126 1705.14 888.596 1698.64 884.845Z" fill="#0C0F38"/>
<path d="M1709.34 896.213C1704.21 896.217 1699.31 895.18 1695.65 893.063L1632.24 856.495C1628.47 854.321 1626.4 851.248 1626.4 847.85C1626.4 843.836 1629.31 839.854 1634.4 836.917L1695.49 801.582C1704.72 796.249 1718.78 795.691 1726.82 800.34L1790.23 836.908C1794 839.082 1796.08 842.154 1796.08 845.558C1796.08 849.571 1793.16 853.554 1788.07 856.486L1726.98 891.821C1721.95 894.727 1715.48 896.213 1709.34 896.213ZM1713.14 799.735C1707.46 799.735 1701.47 801.12 1696.79 803.822L1635.69 839.157C1631.43 841.619 1628.99 844.786 1628.99 847.85C1628.99 850.29 1630.6 852.564 1633.54 854.26L1696.95 890.827C1704.27 895.058 1717.17 894.501 1725.69 889.585L1786.79 854.251C1791.06 851.789 1793.5 848.621 1793.5 845.562C1793.5 843.122 1791.88 840.847 1788.95 839.148L1725.54 802.58C1722.22 800.671 1717.79 799.735 1713.14 799.735Z" fill="url(#paint22_linear_5_2232)"/>
<path d="M1781.67 786.562H1736.4L1723.83 779.342C1717.34 775.594 1706.01 776.065 1698.51 780.392L1686.07 787.625H1640.82V818.019H1640.83C1640.65 820.555 1642.06 823.003 1645.18 824.803L1698.64 855.632C1705.13 859.38 1716.46 858.909 1723.96 854.582L1775.47 824.79C1779.36 822.542 1781.43 819.696 1781.63 816.955H1781.67L1781.67 786.562Z" fill="url(#paint23_linear_5_2232)"/>
<path d="M1775.48 822.694L1723.97 852.486C1716.47 856.813 1705.14 857.284 1698.65 853.536L1645.19 822.707C1642.07 820.908 1640.66 818.459 1640.84 815.923H1640.83V818.019H1640.84C1640.66 820.555 1642.07 823.003 1645.19 824.803L1698.65 855.632C1705.14 859.38 1716.47 858.909 1723.97 854.582L1775.48 824.79C1779.37 822.542 1781.44 819.696 1781.64 816.955H1781.68V814.859H1781.64C1781.44 817.6 1779.37 820.45 1775.48 822.694Z" fill="url(#paint24_linear_5_2232)"/>
<path d="M1643.69 820.114H1643.68V789.721H1688.93L1701.37 782.488C1708.87 778.161 1720.21 777.69 1726.7 781.438L1739.26 788.658H1781.68V786.562H1736.4L1723.84 779.342C1717.34 775.594 1706.01 776.065 1698.52 780.392L1686.08 787.625H1640.82V818.019H1640.84C1640.65 820.555 1642.07 823.003 1645.18 824.803L1645.7 825.099C1644.23 823.605 1643.56 821.884 1643.69 820.114Z" fill="#D4088C"/>
<path d="M1698.64 825.239L1645.19 794.41C1638.69 790.662 1639.51 784.117 1647 779.79L1698.51 749.998C1706.01 745.672 1717.35 745.201 1723.83 748.948L1777.29 779.777C1783.78 783.525 1782.97 790.07 1775.47 794.397L1723.96 824.189C1716.47 828.516 1705.14 828.986 1698.64 825.239Z" fill="url(#paint25_linear_5_2232)"/>
<path d="M1777.29 779.778L1723.84 748.948C1720.48 747.009 1715.82 746.208 1711.06 746.478C1714.51 746.687 1717.75 747.497 1720.26 748.948L1773.72 779.778C1780.21 783.525 1779.4 790.07 1771.9 794.397L1720.39 824.189C1716.78 826.276 1712.28 827.457 1707.85 827.705C1713.33 828.036 1719.37 826.838 1723.96 824.189L1775.47 794.397C1782.97 790.07 1783.78 783.525 1777.29 779.778Z" fill="#6EE8FC"/>
<path d="M1702.74 825.239L1649.28 794.41C1642.79 790.663 1643.6 784.118 1651.1 779.791L1702.61 749.999C1706.17 747.946 1710.59 746.77 1714.95 746.495C1709.39 746.099 1703.2 747.297 1698.52 749.999L1647.01 779.791C1639.51 784.118 1638.7 790.663 1645.19 794.41L1698.65 825.239C1702.05 827.208 1706.8 828.002 1711.63 827.697C1708.29 827.457 1705.17 826.642 1702.74 825.239Z" fill="#D4088C"/>
<path d="M1737.38 802.184C1722.94 810.52 1699.54 810.52 1685.1 802.184C1670.67 793.848 1670.67 780.335 1685.1 772.004C1699.54 763.668 1722.94 763.668 1737.38 772.004C1751.81 780.34 1751.81 793.852 1737.38 802.184Z" fill="#6EE8FC"/>
<path d="M1685.1 779.956C1699.54 771.62 1722.94 771.62 1737.38 779.956C1742.84 783.107 1746.22 786.998 1747.55 791.072C1749.74 784.375 1746.35 777.189 1737.38 772.004C1722.94 763.668 1699.54 763.668 1685.1 772.004C1676.13 777.185 1672.74 784.37 1674.93 791.068C1676.26 786.998 1679.64 783.107 1685.1 779.956Z" fill="#267FE5"/>
<path opacity="0.4" d="M1678.94 1092.09C1591.49 1114.22 1483.31 1085.15 1437.33 1027.17C1391.35 969.188 1424.97 904.24 1512.42 882.108C1599.88 859.976 1708.05 889.041 1754.03 947.026C1800.02 1005.01 1766.4 1069.95 1678.94 1092.09Z" fill="url(#paint26_radial_5_2232)"/>
<path opacity="0.4" d="M1437.23 1074.39C1549.69 1074.39 1640.85 1021.75 1640.85 956.826C1640.85 891.897 1549.69 839.261 1437.23 839.261C1324.77 839.261 1233.6 891.897 1233.6 956.826C1233.6 1021.75 1324.77 1074.39 1437.23 1074.39Z" fill="url(#paint27_radial_5_2232)"/>
<path opacity="0.6" d="M1491.51 1007.53L1438.05 976.7C1431.56 972.953 1432.37 966.408 1439.87 962.081L1491.38 932.289C1498.87 927.962 1510.21 927.491 1516.7 931.239L1570.16 962.068C1576.65 965.815 1575.84 972.36 1568.34 976.687L1516.83 1006.48C1509.34 1010.81 1498 1011.28 1491.51 1007.53Z" fill="#0C0F38"/>
<path d="M1502.21 1018.89C1497.08 1018.9 1492.18 1017.86 1488.52 1015.74L1425.11 979.175C1421.34 977.001 1419.26 973.929 1419.26 970.53C1419.26 966.517 1422.18 962.534 1427.26 959.597L1488.36 924.262C1497.59 918.929 1511.65 918.367 1519.69 923.02L1583.1 959.588C1586.87 961.763 1588.94 964.835 1588.94 968.238C1588.94 972.251 1586.03 976.234 1580.94 979.166L1519.85 1014.5C1514.82 1017.41 1508.35 1018.89 1502.21 1018.89ZM1506 922.419C1500.33 922.419 1494.33 923.805 1489.66 926.506L1428.56 961.841C1424.3 964.303 1421.86 967.471 1421.86 970.534C1421.86 972.974 1423.47 975.249 1426.4 976.944L1489.81 1013.51C1497.14 1017.74 1510.04 1017.18 1518.56 1012.27L1579.66 976.935C1583.92 974.473 1586.36 971.305 1586.36 968.247C1586.36 965.806 1584.75 963.532 1581.81 961.832L1518.4 925.265C1515.09 923.352 1510.66 922.419 1506 922.419Z" fill="url(#paint28_linear_5_2232)"/>
<path d="M1574.54 909.242H1529.27L1516.7 902.022C1510.21 898.274 1498.87 898.745 1491.38 903.072L1478.94 910.305H1433.69V940.699H1433.7C1433.52 943.235 1434.93 945.684 1438.05 947.483L1491.5 978.312C1498 982.06 1509.33 981.589 1516.83 977.262L1568.34 947.47C1572.23 945.222 1574.3 942.376 1574.5 939.635H1574.54L1574.54 909.242Z" fill="url(#paint29_linear_5_2232)"/>
<path d="M1568.34 945.379L1516.83 975.171C1509.34 979.498 1498 979.968 1491.51 976.221L1438.05 945.392C1434.93 943.592 1433.52 941.143 1433.7 938.607H1433.69V940.703H1433.7C1433.52 943.239 1434.93 945.688 1438.05 947.487L1491.51 978.317C1498 982.064 1509.34 981.593 1516.83 977.266L1568.34 947.474C1572.24 945.226 1574.31 942.381 1574.51 939.64H1574.54V937.544H1574.51C1574.31 940.285 1572.24 943.13 1568.34 945.379Z" fill="url(#paint30_linear_5_2232)"/>
<path d="M1436.56 942.794H1436.55V912.401H1481.8L1494.24 905.168C1501.74 900.841 1513.07 900.37 1519.57 904.118L1532.13 911.338H1574.55V909.242H1529.28L1516.71 902.022C1510.22 898.274 1498.88 898.745 1491.39 903.072L1478.95 910.305H1433.69V940.699H1433.71C1433.52 943.235 1434.94 945.684 1438.06 947.483L1438.57 947.779C1437.1 946.285 1436.43 944.564 1436.56 942.794Z" fill="#D4088C"/>
<path d="M1491.51 947.919L1438.05 917.09C1431.56 913.342 1432.37 906.797 1439.87 902.471L1491.38 872.679C1498.87 868.352 1510.21 867.881 1516.7 871.628L1570.16 902.457C1576.65 906.205 1575.84 912.75 1568.34 917.077L1516.83 946.869C1509.34 951.196 1498 951.666 1491.51 947.919Z" fill="url(#paint31_linear_5_2232)"/>
<path d="M1570.16 902.457L1516.7 871.628C1513.34 869.689 1508.68 868.888 1503.92 869.158C1507.38 869.367 1510.62 870.177 1513.13 871.628L1566.59 902.457C1573.08 906.205 1572.27 912.75 1564.77 917.077L1513.26 946.869C1509.65 948.956 1505.14 950.137 1500.72 950.385C1506.2 950.716 1512.24 949.522 1516.83 946.869L1568.34 917.077C1575.84 912.754 1576.65 906.209 1570.16 902.457Z" fill="#6EE8FC"/>
<path d="M1495.61 947.919L1442.15 917.09C1435.66 913.342 1436.47 906.797 1443.97 902.471L1495.48 872.679C1499.04 870.626 1503.46 869.45 1507.82 869.175C1502.26 868.779 1496.07 869.977 1491.38 872.679L1439.87 902.471C1432.38 906.797 1431.56 913.342 1438.06 917.09L1491.51 947.919C1494.92 949.888 1499.67 950.682 1504.5 950.377C1501.15 950.137 1498.04 949.326 1495.61 947.919Z" fill="#D4088C"/>
<path d="M1530.24 924.864C1515.81 933.199 1492.4 933.199 1477.97 924.864C1463.53 916.528 1463.53 903.015 1477.97 894.684C1492.41 886.348 1515.81 886.348 1530.24 894.684C1544.68 903.02 1544.68 916.532 1530.24 924.864Z" fill="#6EE8FC"/>
<path d="M1477.97 902.636C1492.41 894.3 1515.81 894.3 1530.24 902.636C1535.7 905.787 1539.09 909.678 1540.42 913.752C1542.61 907.055 1539.22 899.869 1530.24 894.688C1515.81 886.352 1492.4 886.352 1477.97 894.688C1468.99 899.874 1465.61 907.055 1467.8 913.752C1469.13 909.678 1472.51 905.787 1477.97 902.636Z" fill="#267FE5"/>
<path opacity="0.4" d="M1471.81 1214.77C1384.36 1236.9 1276.18 1207.83 1230.2 1149.85C1184.21 1091.87 1217.84 1026.92 1305.29 1004.79C1392.74 982.657 1500.92 1011.72 1546.9 1069.71C1592.88 1127.69 1559.27 1192.63 1471.81 1214.77Z" fill="url(#paint32_radial_5_2232)"/>
<path opacity="0.4" d="M1230.09 1197.07C1342.55 1197.07 1433.72 1144.43 1433.72 1079.51C1433.72 1014.58 1342.55 961.941 1230.09 961.941C1117.63 961.941 1026.47 1014.58 1026.47 1079.51C1026.47 1144.43 1117.63 1197.07 1230.09 1197.07Z" fill="url(#paint33_radial_5_2232)"/>
<path opacity="0.6" d="M1284.38 1130.21L1230.92 1099.38C1224.43 1095.63 1225.24 1089.09 1232.74 1084.76L1284.25 1054.97C1291.74 1050.64 1303.08 1050.17 1309.57 1053.92L1363.03 1084.75C1369.52 1088.49 1368.71 1095.04 1361.21 1099.37L1309.7 1129.16C1302.2 1133.49 1290.87 1133.96 1284.38 1130.21Z" fill="#0C0F38"/>
<path d="M1295.08 1141.57C1289.95 1141.58 1285.05 1140.54 1281.39 1138.42L1217.98 1101.86C1214.21 1099.68 1212.13 1096.61 1212.13 1093.21C1212.13 1089.2 1215.05 1085.21 1220.13 1082.28L1281.23 1046.94C1290.46 1041.61 1304.51 1041.05 1312.55 1045.7L1375.96 1082.27C1379.73 1084.44 1381.81 1087.51 1381.81 1090.92C1381.81 1094.93 1378.89 1098.91 1373.81 1101.85L1312.72 1137.18C1307.68 1140.09 1301.22 1141.57 1295.08 1141.57ZM1298.87 1045.1C1293.2 1045.1 1287.2 1046.48 1282.53 1049.19L1221.43 1084.52C1217.16 1086.99 1214.72 1090.15 1214.72 1093.21C1214.72 1095.65 1216.34 1097.93 1219.27 1099.62L1282.68 1136.19C1290 1140.42 1302.9 1139.87 1311.43 1134.95L1372.52 1099.62C1376.78 1097.15 1379.23 1093.99 1379.23 1090.93C1379.23 1088.49 1377.61 1086.21 1374.68 1084.51L1311.27 1047.94C1307.96 1046.04 1303.53 1045.1 1298.87 1045.1Z" fill="url(#paint34_linear_5_2232)"/>
<path d="M1367.41 1031.93H1322.14L1309.57 1024.71C1303.08 1020.96 1291.74 1021.43 1284.24 1025.76L1271.8 1032.99H1226.55V1063.38H1226.56C1226.38 1065.92 1227.79 1068.37 1230.91 1070.17L1284.37 1101C1290.86 1104.74 1302.2 1104.27 1309.69 1099.95L1361.2 1070.15C1365.09 1067.91 1367.17 1065.06 1367.37 1062.32H1367.4V1031.93H1367.41Z" fill="url(#paint35_linear_5_2232)"/>
<path d="M1361.21 1068.06L1309.7 1097.85C1302.21 1102.18 1290.87 1102.65 1284.38 1098.9L1230.92 1068.07C1227.8 1066.27 1226.39 1063.82 1226.57 1061.29H1226.56V1063.38H1226.57C1226.39 1065.92 1227.8 1068.37 1230.92 1070.17L1284.38 1101C1290.87 1104.74 1302.21 1104.27 1309.7 1099.95L1361.21 1070.15C1365.1 1067.91 1367.17 1065.06 1367.38 1062.32H1367.41V1060.22H1367.38C1367.18 1062.96 1365.11 1065.81 1361.21 1068.06Z" fill="url(#paint36_linear_5_2232)"/>
<path d="M1229.43 1065.47H1229.41V1035.08H1274.67L1287.11 1027.85C1294.6 1023.52 1305.94 1023.05 1312.43 1026.8L1324.99 1034.02H1367.41V1031.92H1322.14L1309.57 1024.7C1303.08 1020.95 1291.74 1021.43 1284.24 1025.75L1271.8 1032.99H1226.55V1063.38H1226.56C1226.38 1065.91 1227.79 1068.36 1230.91 1070.16L1231.43 1070.46C1229.97 1068.96 1229.3 1067.24 1229.43 1065.47Z" fill="#D4088C"/>
<path d="M1284.38 1070.6L1230.92 1039.77C1224.43 1036.02 1225.24 1029.48 1232.74 1025.15L1284.25 995.359C1291.74 991.032 1303.08 990.561 1309.57 994.308L1363.03 1025.14C1369.52 1028.88 1368.71 1035.43 1361.21 1039.76L1309.7 1069.55C1302.2 1073.88 1290.87 1074.35 1284.38 1070.6Z" fill="url(#paint37_linear_5_2232)"/>
<path d="M1363.03 1025.14L1309.57 994.313C1306.21 992.369 1301.54 991.572 1296.79 991.842C1300.25 992.051 1303.49 992.862 1306 994.313L1359.45 1025.14C1365.95 1028.89 1365.13 1035.43 1357.64 1039.76L1306.13 1069.55C1302.51 1071.64 1298.01 1072.82 1293.58 1073.07C1299.06 1073.41 1305.1 1072.21 1309.7 1069.55L1361.21 1039.76C1368.7 1035.43 1369.52 1028.89 1363.03 1025.14Z" fill="#6EE8FC"/>
<path d="M1288.47 1070.6L1235.02 1039.77C1228.52 1036.02 1229.34 1029.48 1236.83 1025.15L1288.34 995.359C1291.9 993.306 1296.33 992.13 1300.69 991.855C1295.12 991.459 1288.94 992.657 1284.25 995.359L1232.74 1025.15C1225.25 1029.48 1224.43 1036.02 1230.93 1039.77L1284.38 1070.6C1287.79 1072.57 1292.54 1073.36 1297.36 1073.06C1294.02 1072.82 1290.91 1072.01 1288.47 1070.6Z" fill="#D4088C"/>
<path d="M1323.11 1047.55C1308.68 1055.88 1285.27 1055.88 1270.84 1047.55C1256.41 1039.21 1256.4 1025.7 1270.84 1017.37C1285.28 1009.03 1308.68 1009.04 1323.11 1017.37C1337.54 1025.7 1337.55 1039.21 1323.11 1047.55Z" fill="#6EE8FC"/>
<path d="M1270.84 1025.32C1285.27 1016.98 1308.68 1016.98 1323.11 1025.32C1328.57 1028.47 1331.95 1032.36 1333.28 1036.43C1335.47 1029.73 1332.08 1022.55 1323.11 1017.36C1308.67 1009.03 1285.27 1009.03 1270.84 1017.36C1261.86 1022.55 1258.47 1029.73 1260.66 1036.43C1261.99 1032.36 1265.38 1028.47 1270.84 1025.32Z" fill="#267FE5"/>
<defs>
<radialGradient id="paint0_radial_5_2232" cx="0" cy="0" r="1" gradientUnits="userSpaceOnUse" gradientTransform="translate(568.5 715.267) rotate(30.0007) scale(298.476 258.492)">
<stop offset="0.0108" stop-color="#25BFEC"/>
<stop offset="0.0453" stop-color="#24B4E1"/>
<stop offset="0.2186" stop-color="#1F83B0"/>
<stop offset="0.3902" stop-color="#1B5A86"/>
<stop offset="0.5567" stop-color="#173A66"/>
<stop offset="0.7168" stop-color="#152350"/>
<stop offset="0.8678" stop-color="#131642"/>
<stop offset="1" stop-color="#13113D"/>
</radialGradient>
<radialGradient id="paint1_radial_5_2232" cx="0" cy="0" r="1" gradientUnits="userSpaceOnUse" gradientTransform="translate(399.847 715.268) rotate(30.0007) scale(298.476 258.492)">
<stop offset="0.0108" stop-color="#D4088C"/>
<stop offset="0.0958" stop-color="#B70980"/>
<stop offset="0.2598" stop-color="#860C6C"/>
<stop offset="0.4224" stop-color="#5C0E5B"/>
<stop offset="0.5801" stop-color="#3C0F4E"/>
<stop offset="0.7318" stop-color="#261045"/>
<stop offset="0.8748" stop-color="#18113F"/>
<stop offset="1" stop-color="#13113D"/>
</radialGradient>
<linearGradient id="paint2_linear_5_2232" x1="333.433" y1="696.341" x2="592.132" y2="696.341" gradientUnits="userSpaceOnUse">
<stop stop-color="#D4088C"/>
<stop offset="0.2258" stop-color="#D4088C"/>
<stop offset="0.5108" stop-color="#6EE1F8"/>
<stop offset="0.7796" stop-color="#6EE8FC"/>
<stop offset="1" stop-color="#6EE8FC"/>
</linearGradient>
<linearGradient id="paint3_linear_5_2232" x1="334.137" y1="664.177" x2="591.42" y2="664.177" gradientUnits="userSpaceOnUse">
<stop stop-color="#A31FA9"/>
<stop offset="0.0668" stop-color="#8B17A0"/>
<stop offset="0.1494" stop-color="#740F98"/>
<stop offset="0.2393" stop-color="#640A92"/>
<stop offset="0.3408" stop-color="#5B078F"/>
<stop offset="0.4785" stop-color="#58068E"/>
<stop offset="0.6264" stop-color="#4D22A3"/>
<stop offset="0.9436" stop-color="#3168DA"/>
<stop offset="1" stop-color="#2C75E4"/>
</linearGradient>
<linearGradient id="paint4_linear_5_2232" x1="371.815" y1="569.55" x2="462.784" y2="727.108" gradientUnits="userSpaceOnUse">
<stop stop-color="#8D139B"/>
<stop offset="0.1651" stop-color="#851BA1"/>
<stop offset="0.4284" stop-color="#6E33B2"/>
<stop offset="0.7551" stop-color="#4958CD"/>
<stop offset="1" stop-color="#2979E4"/>
</linearGradient>
<linearGradient id="paint5_linear_5_2232" x1="334.137" y1="573.693" x2="591.42" y2="573.693" gradientUnits="userSpaceOnUse">
<stop stop-color="#A31FA9"/>
<stop offset="0.0668" stop-color="#8B17A0"/>
<stop offset="0.1494" stop-color="#740F98"/>
<stop offset="0.2393" stop-color="#640A92"/>
<stop offset="0.3408" stop-color="#5B078F"/>
<stop offset="0.4785" stop-color="#58068E"/>
<stop offset="0.6264" stop-color="#4D22A3"/>
<stop offset="0.9436" stop-color="#3168DA"/>
<stop offset="1" stop-color="#2C75E4"/>
</linearGradient>
<linearGradient id="paint6_linear_5_2232" x1="371.816" y1="479.065" x2="462.785" y2="636.624" gradientUnits="userSpaceOnUse">
<stop stop-color="#8D139B"/>
<stop offset="0.1651" stop-color="#851BA1"/>
<stop offset="0.4284" stop-color="#6E33B2"/>
<stop offset="0.7551" stop-color="#4958CD"/>
<stop offset="1" stop-color="#2979E4"/>
</linearGradient>
<linearGradient id="paint7_linear_5_2232" x1="334.137" y1="483.21" x2="591.42" y2="483.21" gradientUnits="userSpaceOnUse">
<stop stop-color="#A31FA9"/>
<stop offset="0.0668" stop-color="#8B17A0"/>
<stop offset="0.1494" stop-color="#740F98"/>
<stop offset="0.2393" stop-color="#640A92"/>
<stop offset="0.3408" stop-color="#5B078F"/>
<stop offset="0.4785" stop-color="#58068E"/>
<stop offset="0.6264" stop-color="#4D22A3"/>
<stop offset="0.9436" stop-color="#3168DA"/>
<stop offset="1" stop-color="#2C75E4"/>
</linearGradient>
<linearGradient id="paint8_linear_5_2232" x1="371.815" y1="388.582" x2="462.784" y2="546.141" gradientUnits="userSpaceOnUse">
<stop stop-color="#8D139B"/>
<stop offset="0.1651" stop-color="#851BA1"/>
<stop offset="0.4284" stop-color="#6E33B2"/>
<stop offset="0.7551" stop-color="#4958CD"/>
<stop offset="1" stop-color="#2979E4"/>
</linearGradient>
<linearGradient id="paint9_linear_5_2232" x1="334.137" y1="392.726" x2="591.42" y2="392.726" gradientUnits="userSpaceOnUse">
<stop stop-color="#A31FA9"/>
<stop offset="0.0668" stop-color="#8B17A0"/>
<stop offset="0.1494" stop-color="#740F98"/>
<stop offset="0.2393" stop-color="#640A92"/>
<stop offset="0.3408" stop-color="#5B078F"/>
<stop offset="0.4785" stop-color="#58068E"/>
<stop offset="0.6264" stop-color="#4D22A3"/>
<stop offset="0.9436" stop-color="#3168DA"/>
<stop offset="1" stop-color="#2C75E4"/>
</linearGradient>
<linearGradient id="paint10_linear_5_2232" x1="371.816" y1="298.098" x2="462.785" y2="455.657" gradientUnits="userSpaceOnUse">
<stop stop-color="#8D139B"/>
<stop offset="0.1651" stop-color="#851BA1"/>
<stop offset="0.4284" stop-color="#6E33B2"/>
<stop offset="0.7551" stop-color="#4958CD"/>
<stop offset="1" stop-color="#2979E4"/>
</linearGradient>
<linearGradient id="paint11_linear_5_2232" x1="334.137" y1="302.242" x2="591.42" y2="302.242" gradientUnits="userSpaceOnUse">
<stop stop-color="#A31FA9"/>
<stop offset="0.0668" stop-color="#8B17A0"/>
<stop offset="0.1494" stop-color="#740F98"/>
<stop offset="0.2393" stop-color="#640A92"/>
<stop offset="0.3408" stop-color="#5B078F"/>
<stop offset="0.4785" stop-color="#58068E"/>
<stop offset="0.6264" stop-color="#4D22A3"/>
<stop offset="0.9436" stop-color="#3168DA"/>
<stop offset="1" stop-color="#2C75E4"/>
</linearGradient>
<linearGradient id="paint12_linear_5_2232" x1="371.816" y1="207.614" x2="462.785" y2="365.173" gradientUnits="userSpaceOnUse">
<stop stop-color="#8D139B"/>
<stop offset="0.1651" stop-color="#851BA1"/>
<stop offset="0.4284" stop-color="#6E33B2"/>
<stop offset="0.7551" stop-color="#4958CD"/>
<stop offset="1" stop-color="#2979E4"/>
</linearGradient>
<radialGradient id="paint13_radial_5_2232" cx="0" cy="0" r="1" gradientUnits="userSpaceOnUse" gradientTransform="translate(1567.5 681.367) rotate(8.9056) scale(369.389 319.919)">
<stop offset="0.0108" stop-color="#25BFEC"/>
<stop offset="0.0453" stop-color="#24B4E1"/>
<stop offset="0.2186" stop-color="#1F83B0"/>
<stop offset="0.3902" stop-color="#1B5A86"/>
<stop offset="0.5567" stop-color="#173A66"/>
<stop offset="0.7168" stop-color="#152350"/>
<stop offset="0.8678" stop-color="#131642"/>
<stop offset="1" stop-color="#13113D"/>
</radialGradient>
<radialGradient id="paint14_radial_5_2232" cx="0" cy="0" r="1" gradientUnits="userSpaceOnUse" gradientTransform="translate(432.502 888.347) rotate(8.9056) scale(369.389 319.919)">
<stop offset="0.0108" stop-color="#D4088C"/>
<stop offset="0.0958" stop-color="#B70980"/>
<stop offset="0.2598" stop-color="#860C6C"/>
<stop offset="0.4224" stop-color="#5C0E5B"/>
<stop offset="0.5801" stop-color="#3C0F4E"/>
<stop offset="0.7318" stop-color="#261045"/>
<stop offset="0.8748" stop-color="#18113F"/>
<stop offset="1" stop-color="#13113D"/>
</radialGradient>
<linearGradient id="paint15_linear_5_2232" x1="31.0162" y1="716.367" x2="2190.32" y2="716.367" gradientUnits="userSpaceOnUse">
<stop stop-color="#8D139B"/>
<stop offset="0.1651" stop-color="#851BA1"/>
<stop offset="0.4284" stop-color="#6E33B2"/>
<stop offset="0.7551" stop-color="#4958CD"/>
<stop offset="1" stop-color="#2979E4"/>
</linearGradient>
<linearGradient id="paint16_linear_5_2232" x1="819.785" y1="533.812" x2="1075.78" y2="977.175" gradientUnits="userSpaceOnUse">
<stop stop-color="#8D139B"/>
<stop offset="0.1651" stop-color="#851BA1"/>
<stop offset="0.4284" stop-color="#6E33B2"/>
<stop offset="0.7551" stop-color="#4958CD"/>
<stop offset="1" stop-color="#2979E4"/>
</linearGradient>
<radialGradient id="paint17_radial_5_2232" cx="0" cy="0" r="1" gradientUnits="userSpaceOnUse" gradientTransform="translate(577.062 349.313) rotate(29.9987) scale(1141.98 1259.88)">
<stop offset="0.0108" stop-color="#2C35A2"/>
<stop offset="0.1635" stop-color="#252C88"/>
<stop offset="0.3975" stop-color="#1B2167"/>
<stop offset="0.621" stop-color="#15194F"/>
<stop offset="0.8273" stop-color="#101540"/>
<stop offset="1" stop-color="#0F133B"/>
</radialGradient>
<linearGradient id="paint18_linear_5_2232" x1="536.695" y1="683.275" x2="1609.02" y2="683.275" gradientUnits="userSpaceOnUse">
<stop stop-color="#A31FA9"/>
<stop offset="0.0668" stop-color="#8B17A0"/>
<stop offset="0.1494" stop-color="#740F98"/>
<stop offset="0.2393" stop-color="#640A92"/>
<stop offset="0.3408" stop-color="#5B078F"/>
<stop offset="0.4785" stop-color="#58068E"/>
<stop offset="0.6264" stop-color="#4D22A3"/>
<stop offset="0.9436" stop-color="#3168DA"/>
<stop offset="1" stop-color="#2C75E4"/>
</linearGradient>
<radialGradient id="paint19_radial_5_2232" cx="0" cy="0" r="1" gradientUnits="userSpaceOnUse" gradientTransform="translate(1536.25 394.742) rotate(30.0007) scale(55.9028 48.414)">
<stop offset="0.0108" stop-color="#2C35A2"/>
<stop offset="0.1635" stop-color="#252C88"/>
<stop offset="0.3975" stop-color="#1B2167"/>
<stop offset="0.621" stop-color="#15194F"/>
<stop offset="0.8273" stop-color="#101540"/>
<stop offset="1" stop-color="#0F133B"/>
</radialGradient>
<radialGradient id="paint20_radial_5_2232" cx="0" cy="0" r="1" gradientUnits="userSpaceOnUse" gradientTransform="translate(1802.82 864.416) rotate(51.5841) scale(134.001 148.97)">
<stop offset="0.0108" stop-color="#25BFEC"/>
<stop offset="0.0453" stop-color="#24B4E1"/>
<stop offset="0.2186" stop-color="#1F83B0"/>
<stop offset="0.3902" stop-color="#1B5A86"/>
<stop offset="0.5567" stop-color="#173A66"/>
<stop offset="0.7168" stop-color="#152350"/>
<stop offset="0.8678" stop-color="#131642"/>
<stop offset="1" stop-color="#13113D"/>
</radialGradient>
<radialGradient id="paint21_radial_5_2232" cx="0" cy="0" r="1" gradientUnits="userSpaceOnUse" gradientTransform="translate(1644.36 834.142) rotate(30.0007) scale(166.257 143.985)">
<stop offset="0.0108" stop-color="#D4088C"/>
<stop offset="0.0958" stop-color="#B70980"/>
<stop offset="0.2598" stop-color="#860C6C"/>
<stop offset="0.4224" stop-color="#5C0E5B"/>
<stop offset="0.5801" stop-color="#3C0F4E"/>
<stop offset="0.7318" stop-color="#261045"/>
<stop offset="0.8748" stop-color="#18113F"/>
<stop offset="1" stop-color="#13113D"/>
</radialGradient>
<linearGradient id="paint22_linear_5_2232" x1="1626.4" y1="846.701" x2="1796.08" y2="846.701" gradientUnits="userSpaceOnUse">
<stop stop-color="#D4088C"/>
<stop offset="0.2258" stop-color="#D4088C"/>
<stop offset="0.5108" stop-color="#6EE1F8"/>
<stop offset="0.7796" stop-color="#6EE8FC"/>
<stop offset="1" stop-color="#6EE8FC"/>
</linearGradient>
<linearGradient id="paint23_linear_5_2232" x1="1627.49" y1="817.486" x2="1799.11" y2="817.486" gradientUnits="userSpaceOnUse">
<stop stop-color="#A31FA9"/>
<stop offset="0.0668" stop-color="#8B17A0"/>
<stop offset="0.1494" stop-color="#740F98"/>
<stop offset="0.2393" stop-color="#640A92"/>
<stop offset="0.3408" stop-color="#5B078F"/>
<stop offset="0.4785" stop-color="#58068E"/>
<stop offset="0.6264" stop-color="#4D22A3"/>
<stop offset="0.9436" stop-color="#3168DA"/>
<stop offset="1" stop-color="#2C75E4"/>
</linearGradient>
<linearGradient id="paint24_linear_5_2232" x1="1627.49" y1="836.511" x2="1799.11" y2="836.511" gradientUnits="userSpaceOnUse">
<stop stop-color="#D4088C"/>
<stop offset="0.2258" stop-color="#D4088C"/>
<stop offset="0.5108" stop-color="#6EE1F8"/>
<stop offset="0.7796" stop-color="#6EE8FC"/>
<stop offset="1" stop-color="#6EE8FC"/>
</linearGradient>
<linearGradient id="paint25_linear_5_2232" x1="1639.76" y1="787.095" x2="1771.69" y2="819.741" gradientUnits="userSpaceOnUse">
<stop stop-color="#8D139B"/>
<stop offset="0.1651" stop-color="#851BA1"/>
<stop offset="0.4284" stop-color="#6E33B2"/>
<stop offset="0.7551" stop-color="#4958CD"/>
<stop offset="1" stop-color="#2979E4"/>
</linearGradient>
<radialGradient id="paint26_radial_5_2232" cx="0" cy="0" r="1" gradientUnits="userSpaceOnUse" gradientTransform="translate(1595.68 987.097) rotate(51.5841) scale(134.001 148.97)">
<stop offset="0.0108" stop-color="#25BFEC"/>
<stop offset="0.0453" stop-color="#24B4E1"/>
<stop offset="0.2186" stop-color="#1F83B0"/>
<stop offset="0.3902" stop-color="#1B5A86"/>
<stop offset="0.5567" stop-color="#173A66"/>
<stop offset="0.7168" stop-color="#152350"/>
<stop offset="0.8678" stop-color="#131642"/>
<stop offset="1" stop-color="#13113D"/>
</radialGradient>
<radialGradient id="paint27_radial_5_2232" cx="0" cy="0" r="1" gradientUnits="userSpaceOnUse" gradientTransform="translate(1437.23 956.824) rotate(30.0007) scale(166.257 143.985)">
<stop offset="0.0108" stop-color="#D4088C"/>
<stop offset="0.0958" stop-color="#B70980"/>
<stop offset="0.2598" stop-color="#860C6C"/>
<stop offset="0.4224" stop-color="#5C0E5B"/>
<stop offset="0.5801" stop-color="#3C0F4E"/>
<stop offset="0.7318" stop-color="#261045"/>
<stop offset="0.8748" stop-color="#18113F"/>
<stop offset="1" stop-color="#13113D"/>
</radialGradient>
<linearGradient id="paint28_linear_5_2232" x1="1419.27" y1="969.381" x2="1588.94" y2="969.381" gradientUnits="userSpaceOnUse">
<stop stop-color="#D4088C"/>
<stop offset="0.2258" stop-color="#D4088C"/>
<stop offset="0.5108" stop-color="#6EE1F8"/>
<stop offset="0.7796" stop-color="#6EE8FC"/>
<stop offset="1" stop-color="#6EE8FC"/>
</linearGradient>
<linearGradient id="paint29_linear_5_2232" x1="1420.36" y1="940.168" x2="1591.97" y2="940.168" gradientUnits="userSpaceOnUse">
<stop stop-color="#A31FA9"/>
<stop offset="0.0668" stop-color="#8B17A0"/>
<stop offset="0.1494" stop-color="#740F98"/>
<stop offset="0.2393" stop-color="#640A92"/>
<stop offset="0.3408" stop-color="#5B078F"/>
<stop offset="0.4785" stop-color="#58068E"/>
<stop offset="0.6264" stop-color="#4D22A3"/>
<stop offset="0.9436" stop-color="#3168DA"/>
<stop offset="1" stop-color="#2C75E4"/>
</linearGradient>
<linearGradient id="paint30_linear_5_2232" x1="1420.36" y1="959.192" x2="1591.97" y2="959.192" gradientUnits="userSpaceOnUse">
<stop stop-color="#D4088C"/>
<stop offset="0.2258" stop-color="#D4088C"/>
<stop offset="0.5108" stop-color="#6EE1F8"/>
<stop offset="0.7796" stop-color="#6EE8FC"/>
<stop offset="1" stop-color="#6EE8FC"/>
</linearGradient>
<linearGradient id="paint31_linear_5_2232" x1="1432.63" y1="909.777" x2="1564.56" y2="942.422" gradientUnits="userSpaceOnUse">
<stop stop-color="#8D139B"/>
<stop offset="0.1651" stop-color="#851BA1"/>
<stop offset="0.4284" stop-color="#6E33B2"/>
<stop offset="0.7551" stop-color="#4958CD"/>
<stop offset="1" stop-color="#2979E4"/>
</linearGradient>
<radialGradient id="paint32_radial_5_2232" cx="0" cy="0" r="1" gradientUnits="userSpaceOnUse" gradientTransform="translate(1388.55 1109.78) rotate(51.5841) scale(134.001 148.97)">
<stop offset="0.0108" stop-color="#25BFEC"/>
<stop offset="0.0453" stop-color="#24B4E1"/>
<stop offset="0.2186" stop-color="#1F83B0"/>
<stop offset="0.3902" stop-color="#1B5A86"/>
<stop offset="0.5567" stop-color="#173A66"/>
<stop offset="0.7168" stop-color="#152350"/>
<stop offset="0.8678" stop-color="#131642"/>
<stop offset="1" stop-color="#13113D"/>
</radialGradient>
<radialGradient id="paint33_radial_5_2232" cx="0" cy="0" r="1" gradientUnits="userSpaceOnUse" gradientTransform="translate(1230.09 1079.5) rotate(30.0007) scale(166.257 143.985)">
<stop offset="0.0108" stop-color="#D4088C"/>
<stop offset="0.0958" stop-color="#B70980"/>
<stop offset="0.2598" stop-color="#860C6C"/>
<stop offset="0.4224" stop-color="#5C0E5B"/>
<stop offset="0.5801" stop-color="#3C0F4E"/>
<stop offset="0.7318" stop-color="#261045"/>
<stop offset="0.8748" stop-color="#18113F"/>
<stop offset="1" stop-color="#13113D"/>
</radialGradient>
<linearGradient id="paint34_linear_5_2232" x1="1212.13" y1="1092.06" x2="1381.81" y2="1092.06" gradientUnits="userSpaceOnUse">
<stop stop-color="#D4088C"/>
<stop offset="0.2258" stop-color="#D4088C"/>
<stop offset="0.5108" stop-color="#6EE1F8"/>
<stop offset="0.7796" stop-color="#6EE8FC"/>
<stop offset="1" stop-color="#6EE8FC"/>
</linearGradient>
<linearGradient id="paint35_linear_5_2232" x1="1213.23" y1="1062.85" x2="1384.84" y2="1062.85" gradientUnits="userSpaceOnUse">
<stop stop-color="#A31FA9"/>
<stop offset="0.0668" stop-color="#8B17A0"/>
<stop offset="0.1494" stop-color="#740F98"/>
<stop offset="0.2393" stop-color="#640A92"/>
<stop offset="0.3408" stop-color="#5B078F"/>
<stop offset="0.4785" stop-color="#58068E"/>
<stop offset="0.6264" stop-color="#4D22A3"/>
<stop offset="0.9436" stop-color="#3168DA"/>
<stop offset="1" stop-color="#2C75E4"/>
</linearGradient>
<linearGradient id="paint36_linear_5_2232" x1="1213.23" y1="1081.87" x2="1384.84" y2="1081.87" gradientUnits="userSpaceOnUse">
<stop stop-color="#D4088C"/>
<stop offset="0.2258" stop-color="#D4088C"/>
<stop offset="0.5108" stop-color="#6EE1F8"/>
<stop offset="0.7796" stop-color="#6EE8FC"/>
<stop offset="1" stop-color="#6EE8FC"/>
</linearGradient>
<linearGradient id="paint37_linear_5_2232" x1="1225.5" y1="1032.46" x2="1357.43" y2="1065.1" gradientUnits="userSpaceOnUse">
<stop stop-color="#8D139B"/>
<stop offset="0.1651" stop-color="#851BA1"/>
<stop offset="0.4284" stop-color="#6E33B2"/>
<stop offset="0.7551" stop-color="#4958CD"/>
<stop offset="1" stop-color="#2979E4"/>
</linearGradient>
</defs>
</svg>
