<svg width="67" height="50" viewBox="0 0 67 50" fill="none" xmlns="http://www.w3.org/2000/svg">
<path d="M56.3579 4.14681C52.1139 2.23027 47.5647 0.813697 42.8076 0.00819437C42.7652 5.02241e-05 42.7213 0.00529861 42.6821 0.0232138C42.6428 0.0411289 42.6101 0.0708245 42.5884 0.108188C42.0059 1.13312 41.3568 2.46914 40.9019 3.52463C35.8565 2.76978 30.7271 2.76978 25.6817 3.52463C25.175 2.35488 24.6037 1.21429 23.9703 0.108188C23.9488 0.0703645 23.9163 0.0399972 23.8772 0.0211383C23.838 0.00227947 23.794 -0.00417421 23.7511 0.00263892C18.9967 0.808142 14.4476 2.22472 10.2008 4.14403C10.1643 4.15938 10.1333 4.18555 10.1121 4.21903C1.4798 16.9265 -0.886302 29.3202 0.275945 41.5582C0.27918 41.5882 0.288471 41.6172 0.303254 41.6435C0.318037 41.6697 0.338002 41.6927 0.361935 41.711C5.40035 45.3842 11.02 48.1823 16.9857 49.9882C17.0273 50.0011 17.0717 50.001 17.1133 49.9881C17.1549 49.9753 17.1916 49.9501 17.2187 49.916C18.5024 48.1969 19.64 46.373 20.6194 44.4636C20.633 44.4375 20.6409 44.4088 20.6424 44.3794C20.644 44.35 20.6392 44.3206 20.6284 44.2932C20.6176 44.2658 20.6011 44.241 20.5799 44.2206C20.5587 44.2002 20.5334 44.1845 20.5057 44.1747C18.7138 43.499 16.9776 42.6836 15.313 41.736C15.2831 41.7189 15.2579 41.6946 15.2397 41.6654C15.2215 41.6361 15.2108 41.6028 15.2086 41.5684C15.2064 41.534 15.2127 41.4996 15.2271 41.4682C15.2415 41.4369 15.2634 41.4096 15.2909 41.3888C15.6404 41.1305 15.9899 40.8611 16.3227 40.5916C16.3527 40.5674 16.3888 40.552 16.427 40.5471C16.4652 40.5422 16.504 40.548 16.5391 40.5639C27.432 45.4635 39.2293 45.4635 49.9946 40.5639C50.0298 40.547 50.069 40.5405 50.1078 40.5449C50.1465 40.5493 50.1832 40.5645 50.2138 40.5889C50.5466 40.8611 50.8934 41.1305 51.2456 41.3888C51.2734 41.4091 51.2957 41.4361 51.3105 41.4671C51.3253 41.4982 51.3322 41.5325 51.3305 41.5669C51.3289 41.6013 51.3188 41.6347 51.301 41.6643C51.2833 41.6938 51.2586 41.7184 51.229 41.736C49.5702 42.6915 47.8449 43.4998 46.0335 44.172C46.0057 44.1821 45.9804 44.198 45.9592 44.2187C45.938 44.2394 45.9215 44.2644 45.9108 44.292C45.9 44.3196 45.8952 44.3492 45.8968 44.3788C45.8984 44.4084 45.9062 44.4373 45.9198 44.4636C46.9184 46.3718 48.0612 48.1884 49.3178 49.9132C49.3439 49.9486 49.3803 49.9751 49.422 49.989C49.4637 50.0029 49.5087 50.0036 49.5508 49.991C55.5267 48.1901 61.1555 45.3907 66.1995 41.711C66.2241 41.6938 66.2448 41.6715 66.2601 41.6456C66.2754 41.6198 66.285 41.5909 66.2883 41.561C67.6752 27.4119 63.9638 15.1183 56.4438 4.22458C56.4254 4.18918 56.3949 4.16158 56.3579 4.14681ZM22.2477 34.106C18.969 34.106 16.2645 31.1367 16.2645 27.4953C16.2645 23.8511 18.9163 20.8846 22.2477 20.8846C25.6041 20.8846 28.2836 23.8761 28.2309 27.4953C28.2309 31.1395 25.5791 34.106 22.2477 34.106ZM44.3692 34.106C41.0878 34.106 38.386 31.1367 38.386 27.4953C38.386 23.8511 41.0351 20.8846 44.3692 20.8846C47.7256 20.8846 50.4052 23.8761 50.3525 27.4953C50.3525 31.1395 47.7284 34.106 44.3692 34.106Z" fill="white"/>
</svg>
