<svg width="501" height="500" viewBox="0 0 501 500" fill="none" xmlns="http://www.w3.org/2000/svg">
<path fill-rule="evenodd" clip-rule="evenodd" d="M96.2361 407.613L252.78 470.915L408.469 404.192L470.915 247.648L404.192 91.9589L247.648 29.5124L91.9589 96.2361L29.5124 252.78L96.2361 407.613ZM252.78 500C251.069 500 249.358 500 247.648 499.145L79.9829 431.565C76.5612 429.855 73.9949 427.288 72.284 423.867L1.28315 257.913C-0.427716 254.491 -0.427716 251.069 1.28315 246.792L68.8623 79.9829C70.5731 76.5612 73.1394 73.9949 76.5612 72.284L242.515 1.28315C245.937 -0.427716 249.358 -0.427716 253.636 1.28315L421.3 68.8623C423.867 69.7177 426.433 72.284 428.144 75.7057L499.145 241.66C500.855 245.081 500.855 248.503 499.145 252.78L431.565 420.445C429.855 423.867 427.288 426.433 423.867 428.144L257.913 499.145C257.057 500 254.491 500 252.78 500Z" fill="#061125" fill-opacity="0.15"/>
<path fill-rule="evenodd" clip-rule="evenodd" d="M286.14 247.647L219.416 321.214H325.49V353.72H175.789V321.214L242.513 247.647L175.789 178.357V146.706H325.49V178.357H221.127L286.14 247.647Z" fill="#061125" fill-opacity="0.15"/>
</svg>
