<svg width="101" height="100" viewBox="0 0 101 100" fill="none" xmlns="http://www.w3.org/2000/svg">
<path fill-rule="evenodd" clip-rule="evenodd" d="M19.2472 81.5227L50.556 94.1831L81.6938 80.8383L94.1831 49.5295L80.8383 18.3918L49.5295 5.90248L18.3918 19.2472L5.90248 50.556L19.2472 81.5227ZM50.556 100C50.2139 100 49.8717 100 49.5295 99.8289L15.9966 86.3131C15.3122 85.9709 14.799 85.4577 14.4568 84.7733L0.25663 51.5826C-0.0855432 50.8982 -0.0855432 50.2139 0.25663 49.3584L13.7725 15.9966C14.1146 15.3122 14.6279 14.799 15.3122 14.4568L48.503 0.25663C49.1873 -0.0855432 49.8717 -0.0855432 50.7271 0.25663L84.2601 13.7725C84.7733 13.9435 85.2866 14.4568 85.6287 15.1411L99.8289 48.3319C100.171 49.0163 100.171 49.7006 99.8289 50.556L86.3131 84.089C85.9709 84.7733 85.4577 85.2866 84.7733 85.6287L51.5826 99.8289C51.4115 100 50.8982 100 50.556 100Z" fill="white"/>
<path fill-rule="evenodd" clip-rule="evenodd" d="M57.2284 49.5294L43.8836 64.2428H65.0983V70.7441H35.1582V64.2428L48.5029 49.5294L35.1582 35.6714V29.3412H65.0983V35.6714H44.2258L57.2284 49.5294Z" fill="white"/>
</svg>
