<svg width="48" height="50" viewBox="0 0 48 50" fill="none" xmlns="http://www.w3.org/2000/svg">
<path d="M12.5481 0.823776C14.4237 1.45913 16.2079 2.3374 17.8554 3.43618C20.182 2.84155 22.5744 2.54282 24.9758 2.54707C27.4558 2.54707 29.8485 2.85676 32.0912 3.43369C33.738 2.33597 35.5214 1.45854 37.396 0.823776C39.1368 0.231863 41.6168 -0.727186 43.0903 0.903697C44.0893 2.0126 44.3391 3.87075 44.5164 5.28935C44.7162 6.87278 44.7637 8.93573 44.2392 10.9837C46.2447 13.5736 47.4535 16.6631 47.4535 20.0297C47.4535 25.1297 44.6912 29.5578 40.6028 32.6247C38.6352 34.0821 36.4529 35.2247 34.1342 36.0114C34.6687 37.2352 34.9659 38.5888 34.9659 40.0099V47.5025C34.9659 48.1649 34.7028 48.8001 34.2344 49.2685C33.766 49.7369 33.1308 50 32.4684 50H17.4832C16.8208 50 16.1856 49.7369 15.7172 49.2685C15.2488 48.8001 14.9857 48.1649 14.9857 47.5025V45.0274C12.6006 45.3196 10.6001 45.0599 8.89925 44.3381C7.12101 43.5839 5.88224 42.415 4.95066 41.2961C4.06654 40.2372 3.1025 37.8496 1.70888 37.385C1.39763 37.2814 1.10983 37.1174 0.861937 36.9026C0.614039 36.6877 0.410889 36.4261 0.264086 36.1328C-0.032396 35.5403 -0.0813669 34.8542 0.127947 34.2256C0.33726 33.597 0.787711 33.0773 1.38021 32.7809C1.9727 32.4844 2.65871 32.4354 3.28731 32.6447C4.95066 33.1992 6.03459 34.398 6.77635 35.362C7.97516 36.9105 8.9492 38.9335 10.8473 39.7402C11.629 40.0723 12.7754 40.2896 14.5686 40.0449L14.9857 39.96C14.9905 38.6008 15.2735 37.257 15.8174 36.0114C13.4986 35.2247 11.3164 34.0822 9.3488 32.6247C5.26036 29.5578 2.4981 25.1322 2.4981 20.0297C2.4981 16.6681 3.7044 13.5811 5.70491 10.9937C5.18043 8.94572 5.22539 6.87777 5.42519 5.29184L5.43768 5.19694C5.62 3.74338 5.83229 2.03258 6.85128 0.903697C8.32482 -0.727186 10.8074 0.234361 12.5456 0.826274L12.5481 0.823776Z" fill="white"/>
</svg>
