<svg width="50" height="50" viewBox="0 0 50 50" fill="none" xmlns="http://www.w3.org/2000/svg">
<path fill-rule="evenodd" clip-rule="evenodd" d="M10.7581 0.784616C20.1961 -0.261539 29.7208 -0.261539 39.1588 0.784616C44.3149 1.36023 48.4718 5.41942 49.0773 10.5945C50.1965 20.1646 50.1965 29.8325 49.0773 39.4025C48.4718 44.5777 44.3149 48.6368 39.1615 49.2152C29.7226 50.2616 20.197 50.2616 10.7581 49.2152C5.60196 48.6368 1.44503 44.5776 0.839543 39.4052C-0.279848 29.8343 -0.279848 20.1655 0.839543 10.5945C1.44503 5.41942 5.60196 1.36023 10.7581 0.784616ZM36.9323 16.7987L39.2131 14.6184V14.1378H31.3337L25.716 28.1481L19.3299 14.1378H11.0649V14.6184L13.7258 17.8223C13.855 17.9382 13.9551 18.0829 14.0179 18.2447C14.0806 18.4066 14.1043 18.5809 14.0869 18.7536V31.3548C14.1249 31.5786 14.1098 31.8082 14.0428 32.0252C13.9759 32.2421 13.8589 32.4403 13.7013 32.6037L10.7038 36.2421V36.7172H19.1941V36.2394L16.1993 32.6065C16.0402 32.4432 15.9204 32.246 15.8489 32.0296C15.7774 31.8132 15.7561 31.5833 15.7866 31.3575V20.4588L23.2397 36.7199H24.1086L30.5082 20.4588V33.4183C30.5082 33.7631 30.5082 33.8283 30.2802 34.0564L27.9777 36.2909V36.7688H39.1561V36.2909L36.9351 34.1079C36.8385 34.0349 36.7636 33.9369 36.7187 33.8244C36.6737 33.712 36.6603 33.5894 36.6798 33.4699V17.4368C36.6603 17.3173 36.6737 17.1947 36.7187 17.0822C36.7636 16.9698 36.8357 16.8718 36.9323 16.7987Z" fill="white"/>
</svg>
