<svg width="60" height="50" viewBox="0 0 60 50" fill="none" xmlns="http://www.w3.org/2000/svg">
<path fill-rule="evenodd" clip-rule="evenodd" d="M38.5701 32.9073C36.3481 32.9073 34.4828 31.1038 34.4828 28.8818C34.4828 26.6597 36.3481 24.7993 38.5701 24.7993C40.7922 24.7993 42.5956 26.6622 42.5956 28.8843C42.5956 31.1038 40.7922 32.9073 38.5701 32.9073ZM39.514 40.7179C37.4455 42.7864 34.2524 43.7896 29.7562 43.7896H29.6918C25.1957 43.7896 22.0075 42.7864 19.9391 40.7179C19.7883 40.5671 19.6687 40.3881 19.5871 40.1911C19.5055 39.9941 19.4635 39.7829 19.4635 39.5697C19.4635 39.3565 19.5055 39.1453 19.5871 38.9483C19.6687 38.7513 19.7883 38.5723 19.9391 38.4215C20.0898 38.2707 20.2688 38.1511 20.4659 38.0695C20.6629 37.9879 20.874 37.9459 21.0872 37.9459C21.3005 37.9459 21.5116 37.9879 21.7086 38.0695C21.9056 38.1511 22.0846 38.2707 22.2354 38.4215C23.6623 39.8484 26.0999 40.542 29.6918 40.542L29.724 40.5445H29.7562C33.3482 40.5445 35.7882 39.8484 37.2176 38.4215C37.3684 38.2707 37.5474 38.1511 37.7444 38.0695C37.9414 37.9879 38.1525 37.9459 38.3658 37.9459C38.579 37.9459 38.7902 37.9879 38.9872 38.0695C39.1842 38.1511 39.3632 38.2707 39.514 38.4215C39.6647 38.5723 39.7844 38.7513 39.866 38.9483C39.9476 39.1453 39.9896 39.3565 39.9896 39.5697C39.9896 39.7829 39.9476 39.9941 39.866 40.1911C39.7844 40.3881 39.6647 40.5671 39.514 40.7179ZM16.8574 28.8818C16.8574 26.6622 18.7227 24.7993 20.9423 24.7993C23.1644 24.7993 24.9653 26.6622 24.9653 28.8843C24.9653 31.1038 23.1644 32.9073 20.9423 32.9073C18.7227 32.9073 16.8574 31.1038 16.8574 28.8818ZM49.5392 3.24762C51.0429 3.24762 52.2691 4.47136 52.2691 5.97503C52.2691 7.4787 51.0429 8.70491 49.5392 8.70491C48.8154 8.70426 48.1214 8.41644 47.6096 7.90463C47.0978 7.39282 46.81 6.69884 46.8093 5.97503C46.8093 4.47136 48.0331 3.24762 49.5392 3.24762ZM59.453 24.4624C59.4511 22.5683 58.6977 20.7522 57.3583 19.4129C56.019 18.0735 54.2029 17.3201 52.3088 17.3182C50.602 17.3182 49.0364 17.9201 47.8052 18.9209C43.4503 16.1836 37.9211 14.5338 31.9932 14.1845L35.0847 4.40943L43.5815 6.41102C43.6928 7.91577 44.3684 9.32292 45.4733 10.3505C46.5781 11.3782 48.0304 11.9504 49.5392 11.9525C51.1237 11.9506 52.6427 11.3201 53.7629 10.1994C54.8831 9.0788 55.5129 7.55953 55.5143 5.97503C55.5123 4.39096 54.8822 2.87233 53.762 1.75222C52.6419 0.632108 51.1233 0.00196657 49.5392 0C47.2354 0 45.2314 1.31292 44.2355 3.2278L34.3614 0.904182C33.9632 0.810815 33.5445 0.871223 33.189 1.07332C32.8335 1.27541 32.5674 1.60429 32.444 1.99415L28.6043 14.125C22.2181 14.2811 16.2158 15.9384 11.5388 18.8367C10.2856 17.8523 8.73792 17.3175 7.14427 17.3182C5.2501 17.3201 3.43407 18.0735 2.09468 19.4129C0.755297 20.7522 0.00196729 22.5683 0 24.4624C0.000263307 25.6198 0.282063 26.7596 0.821093 27.7837C1.36012 28.8078 2.1402 29.6855 3.09403 30.3409C3.01514 30.9097 2.97541 31.4833 2.97513 32.0576C2.97513 36.9823 5.83631 41.5626 11.036 44.9564C16.0176 48.209 22.6144 50 29.6051 50C36.5958 50 43.1926 48.209 48.1768 44.9564C53.374 41.5626 56.2376 36.9798 56.2376 32.0576C56.2376 31.5299 56.2004 31.0072 56.1385 30.4895C57.1535 29.845 57.9894 28.9547 58.5688 27.9011C59.1482 26.8476 59.4524 25.6648 59.453 24.4624Z" fill="white"/>
</svg>
