<svg width="51" height="50" viewBox="0 0 51 50" fill="none" xmlns="http://www.w3.org/2000/svg">
<path d="M47.9783 29.003C47.2796 28.7852 46.523 28.8525 45.8737 29.1902C45.2243 29.5279 44.7347 30.1086 44.5117 30.8057C43.2015 34.8117 40.6473 38.2951 37.2206 40.7491C33.7939 43.2032 29.6735 44.4998 25.459 44.4504C20.2462 44.5096 15.2225 42.4992 11.4898 38.86C7.75699 35.2208 5.61972 30.2499 5.54663 25.0372C5.61972 19.8245 7.75699 14.8535 11.4898 11.2143C15.2225 7.57512 20.2462 5.56472 25.459 5.62398C30.1669 5.61261 34.73 7.25138 38.3549 10.2554L32.3368 9.25702C31.9762 9.19767 31.6073 9.21021 31.2515 9.29391C30.8957 9.37762 30.5599 9.53083 30.2635 9.74475C29.9671 9.95867 29.716 10.2291 29.5244 10.5404C29.3329 10.8517 29.2048 11.1979 29.1475 11.5589C29.0882 11.9195 29.1007 12.2884 29.1844 12.6442C29.2681 13 29.4214 13.3358 29.6353 13.6322C29.8492 13.9286 30.1196 14.1798 30.4309 14.3713C30.7423 14.5628 31.0884 14.6909 31.4494 14.7482L43.2082 16.6895H43.6797C44.0013 16.6891 44.3203 16.6328 44.6226 16.5231C44.7242 16.4845 44.8181 16.4282 44.9 16.3567C45.0988 16.2828 45.2857 16.18 45.4546 16.0516L45.7042 15.7466C45.7042 15.6079 45.9538 15.497 46.0648 15.3306C46.1757 15.1642 46.0648 15.0532 46.2034 14.9423C46.2801 14.7808 46.3449 14.614 46.3976 14.4431L48.4775 3.34986C48.5467 2.98566 48.5435 2.6114 48.4681 2.24845C48.3926 1.88549 48.2464 1.54095 48.0379 1.2345C47.8293 0.928039 47.5623 0.66567 47.2524 0.462368C46.9424 0.259066 46.5954 0.118812 46.2312 0.0496146C45.867 -0.0195828 45.4927 -0.0163689 45.1297 0.0590732C44.7668 0.134515 44.4222 0.280708 44.1158 0.489304C43.4969 0.910583 43.0707 1.56047 42.9309 2.296L42.1821 6.31731C37.5396 2.29389 31.6024 0.0785423 25.459 0.0773477C18.7752 0.0181854 12.3408 2.61298 7.56783 7.29235C2.79487 11.9717 0.0731902 18.3534 0 25.0372C0.0731902 31.7209 2.79487 38.1026 7.56783 42.782C12.3408 47.4614 18.7752 50.0562 25.459 49.997C30.8757 50.0802 36.176 48.4221 40.5795 45.2668C44.983 42.1114 48.2571 37.6255 49.9197 32.4697C50.0249 32.1146 50.0579 31.7421 50.0168 31.374C49.9757 31.006 49.8613 30.6499 49.6803 30.3268C49.4994 30.0037 49.2556 29.7201 48.9633 29.4927C48.6709 29.2654 48.336 29.0989 47.9783 29.003Z" fill="white"/>
</svg>
