<svg width="104" height="100" viewBox="0 0 104 100" fill="none" xmlns="http://www.w3.org/2000/svg">
<path fill-rule="evenodd" clip-rule="evenodd" d="M45.5008 14.542C42.9429 15.4179 43.8373 17.8109 46.4131 17.0955C49.2471 16.3084 54.4698 15.0568 54.8138 14.9715C67.2761 11.8795 97.4042 4.48053 103.012 21.1102C103.775 23.3715 103.883 25.682 103.138 27.9629C100.296 36.6644 86.2485 41.2688 78.2763 43.5005L78.2565 43.5061L46.861 51.1376L39.7601 41.0047L75.2644 32.3764C79.9304 31.0664 85.152 29.4185 89.2833 26.8613C94.3459 23.7276 90.4601 21.8601 86.7206 21.3886C77.2596 20.1955 66.3753 22.9755 57.2073 25.2501C51.6157 26.6375 43.5977 28.2525 38.1915 25.6842C32.6435 23.0486 29.8744 14.9753 33.2989 9.69904C36.3684 4.96949 43.3939 3.1192 48.5829 1.94313L55.9902 0L63.0428 10.0643C57.1017 11.7921 51.4146 12.9122 45.5008 14.542Z" fill="white"/>
<path fill-rule="evenodd" clip-rule="evenodd" d="M46.8609 51.1376L29.7757 55.2906L64.627 76.49L60.8628 57.744L72.0699 55.0197L81.102 100L0 50.6673L39.7601 41.0047L46.8609 51.1376Z" fill="white"/>
</svg>
