<svg width="62" height="50" viewBox="0 0 62 50" fill="none" xmlns="http://www.w3.org/2000/svg">
<path d="M61.5294 5.88235C59.2647 6.91176 56.8235 7.58824 54.2941 7.91176C56.8824 6.35294 58.8824 3.88235 59.8235 0.911765C57.3824 2.38235 54.6765 3.41177 51.8235 4C49.5 1.47059 46.2353 0 42.5294 0C35.6177 0 29.9706 5.64706 29.9706 12.6176C29.9706 13.6176 30.0882 14.5882 30.2941 15.5C19.8235 14.9706 10.5 9.94118 4.29412 2.32353C3.20588 4.17647 2.58824 6.35294 2.58824 8.64706C2.58824 13.0294 4.79412 16.9118 8.20588 19.1176C6.11765 19.1176 4.17647 18.5294 2.47059 17.6471V17.7353C2.47059 23.8529 6.82353 28.9706 12.5882 30.1176C10.7374 30.6241 8.7944 30.6946 6.91177 30.3235C7.71061 32.8308 9.27511 35.0247 11.3853 36.5969C13.4956 38.169 16.0454 39.0403 18.6765 39.0882C14.2166 42.6189 8.68823 44.5274 3 44.5C2 44.5 1 44.4412 0 44.3235C5.58824 47.9118 12.2353 50 19.3529 50C42.5294 50 55.2647 30.7647 55.2647 14.0882C55.2647 13.5294 55.2647 13 55.2353 12.4412C57.7059 10.6765 59.8235 8.44118 61.5294 5.88235Z" fill="white"/>
</svg>
