<svg width="100" height="100" viewBox="0 0 100 100" fill="none" xmlns="http://www.w3.org/2000/svg">
<path d="M73.6842 2.45287e-08C77.7116 -0.000224325 81.5869 1.53855 84.5172 4.30149C87.4474 7.06443 89.2111 10.8427 89.4474 14.8632L89.4737 15.7895V68.4211H93.4211C96.8263 68.4211 99.6316 71.0105 99.9684 74.3263L100 75V84.2105C100 88.238 98.4614 92.1132 95.6985 95.0435C92.9356 97.9737 89.1573 99.7374 85.1368 99.9737L84.2105 100H31.5789C27.5515 100 23.6762 98.4614 20.746 95.6985C17.8158 92.9356 16.0521 89.1573 15.8158 85.1368L15.7895 84.2105V31.5789H6.57895C4.95022 31.5797 3.37912 30.9763 2.16965 29.8854C0.960192 28.7946 0.198361 27.2938 0.0315792 25.6737L2.45287e-08 25V15.7895C-0.000224325 11.762 1.53855 7.88676 4.30149 4.95652C7.06443 2.02628 10.8427 0.262592 14.8632 0.0263164L15.7895 2.45287e-08H73.6842ZM73.6842 10.5263H26.3158V84.2105C26.3158 85.6064 26.8703 86.9451 27.8573 87.9321C28.8444 88.9192 30.1831 89.4737 31.5789 89.4737C32.9748 89.4737 34.3135 88.9192 35.3006 87.9321C36.2876 86.9451 36.8421 85.6064 36.8421 84.2105V75C36.8421 71.3684 39.7895 68.4211 43.4211 68.4211H78.9474V15.7895C78.9474 14.3936 78.3929 13.0549 77.4058 12.0679C76.4188 11.0808 75.0801 10.5263 73.6842 10.5263ZM89.4737 78.9474H47.3684V84.2105C47.3684 86.0526 47.0526 87.8263 46.4737 89.4737H84.2105C85.6064 89.4737 86.9451 88.9192 87.9321 87.9321C88.9192 86.9451 89.4737 85.6064 89.4737 84.2105V78.9474ZM52.6316 47.3684C54.0275 47.3684 55.3662 47.9229 56.3532 48.91C57.3402 49.897 57.8947 51.2357 57.8947 52.6316C57.8947 54.0275 57.3402 55.3662 56.3532 56.3532C55.3662 57.3402 54.0275 57.8947 52.6316 57.8947H42.1053C40.7094 57.8947 39.3707 57.3402 38.3836 56.3532C37.3966 55.3662 36.8421 54.0275 36.8421 52.6316C36.8421 51.2357 37.3966 49.897 38.3836 48.91C39.3707 47.9229 40.7094 47.3684 42.1053 47.3684H52.6316ZM63.1579 26.3158C64.5538 26.3158 65.8925 26.8703 66.8795 27.8573C67.8665 28.8444 68.4211 30.1831 68.4211 31.5789C68.4211 32.9748 67.8665 34.3135 66.8795 35.3006C65.8925 36.2876 64.5538 36.8421 63.1579 36.8421H42.1053C40.7094 36.8421 39.3707 36.2876 38.3836 35.3006C37.3966 34.3135 36.8421 32.9748 36.8421 31.5789C36.8421 30.1831 37.3966 28.8444 38.3836 27.8573C39.3707 26.8703 40.7094 26.3158 42.1053 26.3158H63.1579ZM15.7895 10.5263C14.5004 10.5265 13.2561 10.9998 12.2928 11.8564C11.3294 12.713 10.714 13.8934 10.5632 15.1737L10.5263 15.7895V21.0526H15.7895V10.5263Z" fill="white"/>
</svg>
