<svg width="72" height="50" viewBox="0 0 72 50" fill="none" xmlns="http://www.w3.org/2000/svg">
<path d="M35.8172 0H36.2132C39.8701 0.0133464 58.3993 0.146811 63.3953 1.49035C64.9056 1.90039 66.2819 2.69963 67.3866 3.8082C68.4913 4.91678 69.2856 6.29586 69.6904 7.80763C70.1397 9.49818 70.4555 11.7359 70.6691 14.0448L70.7136 14.5075L70.8115 15.6642L70.847 16.1269C71.1362 20.1931 71.1718 24.0012 71.1763 24.8332V25.1668C71.1718 26.0299 71.1318 30.0961 70.8115 34.3313L70.7759 34.7985L70.7358 35.2611C70.5134 37.8059 70.1842 40.3328 69.6904 42.1924C69.2869 43.7047 68.4929 45.0845 67.388 46.1932C66.2832 47.302 64.9063 48.1008 63.3953 48.5097C58.2347 49.8977 38.62 49.9956 35.9018 50H35.27C33.8954 50 28.2098 49.9733 22.2484 49.7687L21.4921 49.742L21.1051 49.7242L20.3443 49.693L19.5836 49.6619C14.6454 49.4439 9.94305 49.0924 7.77649 48.5052C6.26608 48.0968 4.88951 47.2986 3.7847 46.1907C2.67988 45.0827 1.88561 43.7039 1.48145 42.1924C0.987632 40.3372 0.658421 37.8059 0.435982 35.2611L0.400391 34.794L0.364801 34.3313C0.145242 31.3168 0.023578 28.296 0 25.2736L0 24.7264C0.00889759 23.7699 0.0444879 20.4645 0.284723 16.8164L0.315864 16.3582L0.329211 16.1269L0.364801 15.6642L0.462675 14.5075L0.507163 14.0448C0.720705 11.7359 1.03657 9.49373 1.4859 7.80763C1.88937 6.29526 2.68334 4.91552 3.78821 3.80675C4.89307 2.69799 6.26999 1.89916 7.78094 1.49035C9.9475 0.912004 14.6499 0.556099 19.588 0.333659L20.3443 0.302518L21.1095 0.275826L21.4921 0.262479L22.2529 0.231338C26.4868 0.0950918 30.7225 0.019454 34.9586 0.004449H35.8172V0ZM28.4723 14.2806V35.7149L46.9659 25.0022L28.4723 14.2806Z" fill="white"/>
</svg>
